<?xml version="1.0" encoding="UTF-8"?>
<svg width="16px" height="16px" viewBox="0 0 16 16" version="1.1" xmlns="http://www.w3.org/2000/svg" xmlns:xlink="http://www.w3.org/1999/xlink">
    <!-- Generator: Sketch 61.2 (89653) - https://sketch.com -->
    <title>icons/ui/edit</title>
    <desc>Created with Sketch.</desc>
    <defs>
        <polygon id="path-1" points="1.74268578e-05 0.332445429 4.64583978 0.332445429 4.64583978 4.58927867 1.74268578e-05 4.58927867"></polygon>
    </defs>
    <g id="icons/ui/edit" stroke="none" stroke-width="1" fill="none" fill-rule="evenodd">
        <g id="No-Scrib" transform="translate(3.000000, -0.500000)">
            <polygon id="Fill-1" fill="#FFCB4D" points="5.05084454 3.73161485 1.40812765 5.60374781 5.78608222 14.6989101 8.39742404 15.0177401 9.45943402 12.9686054"></polygon>
            <g id="Group-19" transform="translate(0.000000, 0.235095)">
                <g id="Group-4">
                    <mask id="mask-2" fill="white">
                        <use xlink:href="#path-1"></use>
                    </mask>
                    <g id="Clip-3"></g>
                    <path d="M2.87412122,0.382652632 L0.284337285,1.63698172 C0.0318829917,1.75895402 -0.0719352909,2.06416842 0.0528735734,2.31492078 L1.09899878,4.58927867 L4.64583978,2.7778482 L3.53731014,0.597096953 C3.4090974,0.359392798 3.1174985,0.264651524 2.87412122,0.382652632" id="Fill-2" fill="#EE6E60" mask="url(#mask-2)"></path>
                </g>
                <polygon id="Fill-5" fill="#CBD5DC" points="1.6048718 5.77711867 5.27255047 3.95661119 4.52199535 2.39763501 0.854883989 4.21814249"></polygon>
                <path d="M7.20708787,13.4821372 C6.72884299,13.5751765 6.12011612,13.3221549 5.78596875,14.4635887 L8.71103468,16.0151898 C8.90108454,16.1161715 9.13311557,15.99193 9.15467346,15.778053 L9.45932055,12.733284 C9.23579922,12.7383898 8.46255158,12.4002712 8.01267235,13.0645948 C7.8316995,13.3306646 7.52875435,13.4878103 7.20708787,13.4821372" id="Fill-7" fill="#D89D81"></path>
                <path d="M8.19824044,15.7430498 L8.71109141,16.01536 C8.90114127,16.1163417 9.13260499,15.9921002 9.15473019,15.7782232 L9.18763435,15.4440758 L8.19824044,15.7430498 Z" id="Fill-11" fill="#173036"></path>
                <path d="M6.04698947,7.24668632 L6.65741828,8.51519823 C6.81966981,8.85274947 6.67784155,9.25837828 6.3402903,9.42119712 C6.00273906,9.58344864 5.59654294,9.44162039 5.43429141,9.10350183 L4.8238626,7.83555723 C4.66161108,7.49743867 4.80343934,7.09237717 5.14099058,6.92955834 C5.47854183,6.7667395 5.88417064,6.90856776 6.04698947,7.24668632" id="Fill-13" fill="#FFFFFF"></path>
                <line x1="3.29903867" y1="7.60290216" x2="4.94821762" y2="10.7577299" id="Stroke-15" stroke="#173036" stroke-width="0.567313019" stroke-linecap="round" stroke-linejoin="round"></line>
                <line x1="1.64475391" y1="4.91786637" x2="4.43366471" y2="3.66183535" id="Stroke-17" stroke="#98A9B4" stroke-width="0.567313019" stroke-linecap="round" stroke-linejoin="round"></line>
            </g>
        </g>
    </g>
</svg>