<svg width="20" height="20" viewBox="0 0 20 20" fill="none" xmlns="http://www.w3.org/2000/svg">
<path fill-rule="evenodd" clip-rule="evenodd" d="M11.8377 3.98126C11.864 3.85663 11.875 3.73477 11.875 3.61845C11.875 2.57432 10.9023 1.875 9.94343 1.875C8.81898 1.875 8.125 2.82912 8.125 3.78877C8.125 4.85367 9.11976 5.625 10.0911 5.625C10.8513 5.625 11.5963 5.15279 11.8377 3.98126Z" fill="#477A85"/>
<path fill-rule="evenodd" clip-rule="evenodd" d="M10.6328 11.7676C10.7572 11.7342 10.8704 11.6883 10.9752 11.634C11.9117 11.1539 12.0864 9.95993 11.6419 9.09852C11.1192 8.091 9.94098 7.91009 9.08002 8.35123C8.12402 8.84247 7.89759 10.0894 8.34764 10.9605C8.70125 11.641 9.47136 12.0919 10.6328 11.7676Z" fill="#477A85"/>
<path fill-rule="evenodd" clip-rule="evenodd" d="M11.7442 16.8116C11.7921 16.6947 11.8278 16.5778 11.847 16.4636C12.0389 15.4459 11.2149 14.5837 10.2785 14.4076C9.17899 14.2013 8.32896 15.0045 8.15347 15.941C7.95879 16.9821 8.79237 17.9159 9.73974 18.0947C10.4815 18.2336 11.2958 17.9104 11.7442 16.8116Z" fill="#477A85"/>
</svg>