<?xml version="1.0" encoding="UTF-8"?>
<svg width="16px" height="16px" viewBox="0 0 16 16" version="1.1" xmlns="http://www.w3.org/2000/svg" xmlns:xlink="http://www.w3.org/1999/xlink">
    <!-- Generator: Sketch 61.2 (89653) - https://sketch.com -->
    <title>icons/navigation/yarnies</title>
    <desc>Created with Sketch.</desc>
    <defs>
        <polygon id="path-1" points="0.000211370518 0.0436220723 10.3257962 0.0436220723 10.3257962 6.50046168 0.000211370518 6.50046168"/>
    </defs>
    <g id="icons/navigation/yarnies" stroke="none" stroke-width="1" fill="none" fill-rule="evenodd">
        <g id="Group-38" transform="translate(0.000000, 1.000000)">
            <path d="M6.99686057,4.2735217 C6.99686057,5.96600554 9.25724838,7.78554386 10.4172853,5.38214589 C10.4367867,5.38273684 10.4415143,5.38332779 10.4610157,5.38391874 C11.2617544,7.1945928 14.4002955,8.73579317 14.4002955,4.06964358 C14.4002955,-1.3186482 6.99686057,-1.46284026 6.99686057,4.2735217" id="Fill-1" fill="#173036"/>
            <path d="M5.4352133,10.5226519 C5.4352133,12.2435014 15.8194054,12.0614885 15.7597193,10.3412299 C15.7094885,7.49048199 13.3575032,5.22004801 10.5067553,5.2696879 C7.65541644,5.31991874 5.38498246,7.67131302 5.4352133,10.5226519" id="Fill-3" fill="#586AE7"/>
            <path d="M13.864362,6.43764358 C13.1061717,6.9204506 10.7583232,7.46826223 9.57819391,6.58301754 L10.5774922,5.27228809 C12.0318227,5.15705263 13.0565319,5.6126759 13.864362,6.43764358" id="Fill-5" fill="#586AE7"/>
            <path d="M8.09165651,3.88077562 C8.09165651,7.83187442 13.1023306,7.83719298 13.1023306,3.88077562 C13.1023306,2.49735919 11.9807054,1.37573407 10.5966981,1.37573407 C9.21328163,1.37573407 8.09165651,2.49735919 8.09165651,3.88077562" id="Fill-7" fill="#DA9F83"/>
            <path d="M13.7241293,3.26937765 C13.3748772,1.85877747 12.1108329,0.809248384 10.5920886,0.809248384 C9.1218024,0.809248384 7.89439705,1.79672761 7.50082364,3.13995937 C7.82348292,3.21501016 8.16032502,3.24042105 8.49953093,3.20141828 C9.07452632,3.13582271 9.57328901,2.91835272 9.98045429,2.601012 C10.3350249,2.32503786 10.8148772,2.29017175 11.1753573,2.55846353 C11.8265854,3.04363435 12.870205,3.42125208 13.7241293,3.26937765" id="Fill-9" fill="#173036"/>
            <path d="M9.16789658,6.0714903 C8.97288273,5.70746445 8.94569898,5.28493444 9.02134072,4.87954201 C9.04970637,4.72944044 9.05975254,4.57520222 9.05088827,4.42510065 C8.99592982,3.56822161 8.32165466,2.92822161 7.5061422,2.86262604 C7.04933703,2.82598707 6.60848753,2.64101939 6.3360591,2.27285688 C5.99862604,1.81723361 5.45849677,1.52175808 4.86340905,1.5601699 C4.30318744,1.59562696 3.82392613,1.91946814 3.53554201,2.3703638 C3.28438781,2.76334626 2.8872687,3.02277378 2.43164543,3.12264451 C1.46189474,3.33597784 0.876262235,4.37605171 1.20424007,5.31448199 C1.3295217,5.67259834 1.32479409,6.05494367 1.20246722,6.41424192 C1.13332595,6.61930194 1.10200554,6.84031764 1.11677932,7.06960665 C1.21783195,8.65276454 3.22470175,9.27858172 4.20508957,8.01512835 C4.89591136,8.28696584 5.62573592,8.19477747 6.21195937,7.81184118 C6.58898615,8.34015143 7.24789658,8.64744598 7.95644691,8.50916343 C8.82159926,8.34074238 9.43264266,7.50454663 9.33809049,6.62875716 C9.31563435,6.42192428 9.25653924,6.23754755 9.16789658,6.0714903" id="Fill-11" fill="#173036"/>
            <g id="Group-15" transform="translate(0.000000, 7.059265)">
                <mask id="mask-2" fill="white">
                    <use xlink:href="#path-1"/>
                </mask>
                <g id="Clip-14"/>
                <path d="M10.3249788,5.29740351 C10.3249788,7.018253 -0.0598042475,6.83624007 0.000472760849,5.11598153 C0.05011265,2.26523361 2.40268883,-0.00579132041 5.25343675,0.0444395199 C8.10418467,0.0946703601 10.3752096,2.44606464 10.3249788,5.29740351" id="Fill-13" fill="#7390FD" mask="url(#mask-2)"/>
            </g>
            <path d="M1.8958892,8.2716602 C2.65348846,8.75446722 5.00133703,9.30227886 6.18205725,8.41703416 L5.182759,7.10630471 C3.93703416,7.10098615 2.79236196,7.53769898 1.8958892,8.2716602" id="Fill-16" fill="#586AE7"/>
            <path d="M7.66859464,5.71479224 C7.66859464,9.66589104 2.65792059,9.6712096 2.65792059,5.71479224 C2.65792059,4.33137581 3.77954571,3.20915974 5.16296214,3.20915974 C6.54696953,3.20915974 7.66859464,4.33137581 7.66859464,5.71479224" id="Fill-18" fill="#91603C"/>
            <path d="M2.03842659,5.08867959 C3.6818615,6.74275162 7.73814958,5.27187442 7.73814958,3.87782087 C7.73814958,2.9488458 2.53305263,1.32727608 2.03842659,5.08867959" id="Fill-20" fill="#173036"/>
            <path d="M1.35741459,12.9692484 C1.35741459,12.9692484 1.50928901,11.2625817 2.26747922,10.2006427" id="Stroke-22" stroke="#586AE7" stroke-width="0.701754386" stroke-linecap="round" stroke-linejoin="round"/>
            <line x1="0.295593721" y1="9.51850785" x2="1.12942567" y2="9.66979132" id="Stroke-24" stroke="#7390FD" stroke-width="0.701754386" stroke-linecap="round" stroke-linejoin="round"/>
            <line x1="1.01578578" y1="9.59409049" x2="0.750448753" y2="8.79807941" id="Stroke-26" stroke="#7390FD" stroke-width="0.701754386" stroke-linecap="round" stroke-linejoin="round"/>
            <line x1="15.1230286" y1="8.34263343" x2="15.3505448" y2="7.62226408" id="Stroke-28" stroke="#586AE7" stroke-width="0.701754386" stroke-linecap="round" stroke-linejoin="round"/>
            <line x1="15.1610859" y1="8.49444875" x2="15.6917599" y2="8.49444875" id="Stroke-30" stroke="#586AE7" stroke-width="0.701754386" stroke-linecap="round" stroke-linejoin="round"/>
            <line x1="9.35895106" y1="9.70808495" x2="9.81398338" y2="9.2908735" id="Stroke-32" stroke="#7390FD" stroke-width="0.701754386" stroke-linecap="round" stroke-linejoin="round"/>
            <line x1="8.63816805" y1="0.947944598" x2="8.107494" y2="0.72042844" id="Stroke-34" stroke="#173036" stroke-width="0.701754386" stroke-linecap="round" stroke-linejoin="round"/>
            <line x1="8.6762253" y1="0.872066482" x2="8.60058356" y2="0.341392428" id="Stroke-36" stroke="#173036" stroke-width="0.701754386" stroke-linecap="round" stroke-linejoin="round"/>
        </g>
    </g>
</svg>