<?xml version="1.0" encoding="UTF-8"?>
<svg width="16px" height="16px" viewBox="0 0 16 16" version="1.1" xmlns="http://www.w3.org/2000/svg" xmlns:xlink="http://www.w3.org/1999/xlink">
    <!-- Generator: Sketch 61.2 (89653) - https://sketch.com -->
    <title>icons/notebook/stash</title>
    <desc>Created with Sketch.</desc>
    <defs>
        <path d="M0.390390169,2.80572657 C0.204387097,4.18560983 1.00463287,5.69418126 2.74678955,5.86180031 L2.74678955,5.86180031 C4.8706851,6.06672811 5.85368971,5.05128111 6.06726882,3.47025499 L6.06726882,3.47025499 C6.17703226,2.65649155 6.09754839,2.10443011 5.67796006,1.55399078 L5.67796006,1.55399078 C5.24052842,0.980301075 4.44460829,0.423913978 3.7162765,0.326046083 L3.7162765,0.326046083 C3.47674347,0.293603687 3.25505376,0.278463902 3.04958525,0.278463902 L3.04958525,0.278463902 C0.555305684,0.278463902 0.434187404,2.48130261 0.390390169,2.80572657" id="path-1"/>
        <path d="M0.390390169,2.80572657 C0.204387097,4.18560983 1.00463287,5.69418126 2.74678955,5.86180031 L2.74678955,5.86180031 C4.8706851,6.06672811 5.85368971,5.05128111 6.06726882,3.47025499 L6.06726882,3.47025499 C6.17703226,2.65649155 6.09754839,2.10443011 5.67796006,1.55399078 L5.67796006,1.55399078 C5.24052842,0.980301075 4.44460829,0.423913978 3.7162765,0.326046083 L3.7162765,0.326046083 C3.47674347,0.293603687 3.25505376,0.278463902 3.04958525,0.278463902 L3.04958525,0.278463902 C0.555305684,0.278463902 0.434187404,2.48130261 0.390390169,2.80572657" id="path-3"/>
        <path d="M0.390390169,2.80572657 C0.204387097,4.18560983 1.00463287,5.69418126 2.74678955,5.86180031 L2.74678955,5.86180031 C4.8706851,6.06672811 5.85368971,5.05128111 6.06726882,3.47025499 L6.06726882,3.47025499 C6.17703226,2.65649155 6.09754839,2.10443011 5.67796006,1.55399078 L5.67796006,1.55399078 C5.24052842,0.980301075 4.44460829,0.423913978 3.7162765,0.326046083 L3.7162765,0.326046083 C3.47674347,0.293603687 3.25505376,0.278463902 3.04958525,0.278463902 L3.04958525,0.278463902 C0.555305684,0.278463902 0.434187404,2.48130261 0.390390169,2.80572657" id="path-5"/>
        <path d="M0.390390169,2.80572657 C0.204387097,4.18560983 1.00463287,5.69418126 2.74678955,5.86180031 L2.74678955,5.86180031 C4.8706851,6.06672811 5.85368971,5.05128111 6.06726882,3.47025499 L6.06726882,3.47025499 C6.17703226,2.65649155 6.09754839,2.10443011 5.67796006,1.55399078 L5.67796006,1.55399078 C5.24052842,0.980301075 4.44460829,0.423913978 3.7162765,0.326046083 L3.7162765,0.326046083 C3.47674347,0.293603687 3.25505376,0.278463902 3.04958525,0.278463902 L3.04958525,0.278463902 C0.555305684,0.278463902 0.434187404,2.48130261 0.390390169,2.80572657" id="path-7"/>
        <path d="M0.390390169,2.80572657 C0.204387097,4.18560983 1.00463287,5.69418126 2.74678955,5.86180031 L2.74678955,5.86180031 C4.8706851,6.06672811 5.85368971,5.05128111 6.06726882,3.47025499 L6.06726882,3.47025499 C6.17703226,2.65649155 6.09754839,2.10443011 5.67796006,1.55399078 L5.67796006,1.55399078 C5.24052842,0.980301075 4.44460829,0.423913978 3.7162765,0.326046083 L3.7162765,0.326046083 C3.47674347,0.293603687 3.25505376,0.278463902 3.04958525,0.278463902 L3.04958525,0.278463902 C0.555305684,0.278463902 0.434187404,2.48130261 0.390390169,2.80572657" id="path-9"/>
        <path d="M0.390390169,2.80572657 C0.204387097,4.18560983 1.00463287,5.69418126 2.74678955,5.86180031 L2.74678955,5.86180031 C4.8706851,6.06672811 5.85368971,5.05128111 6.06726882,3.47025499 L6.06726882,3.47025499 C6.17703226,2.65649155 6.09754839,2.10443011 5.67796006,1.55399078 L5.67796006,1.55399078 C5.24052842,0.980301075 4.44460829,0.423913978 3.7162765,0.326046083 L3.7162765,0.326046083 C3.47674347,0.293603687 3.25505376,0.278463902 3.04958525,0.278463902 L3.04958525,0.278463902 C0.555305684,0.278463902 0.434187404,2.48130261 0.390390169,2.80572657" id="path-11"/>
        <path d="M0.390390169,2.80572657 C0.204387097,4.18560983 1.00463287,5.69418126 2.74678955,5.86180031 L2.74678955,5.86180031 C4.8706851,6.06672811 5.85368971,5.05128111 6.06726882,3.47025499 L6.06726882,3.47025499 C6.17703226,2.65649155 6.09754839,2.10443011 5.67796006,1.55399078 L5.67796006,1.55399078 C5.24052842,0.980301075 4.44460829,0.423913978 3.7162765,0.326046083 L3.7162765,0.326046083 C3.47674347,0.293603687 3.25505376,0.278463902 3.04958525,0.278463902 L3.04958525,0.278463902 C0.555305684,0.278463902 0.434187404,2.48130261 0.390390169,2.80572657" id="path-13"/>
        <path d="M0.390390169,2.80572657 C0.204387097,4.18560983 1.00463287,5.69418126 2.74678955,5.86180031 L2.74678955,5.86180031 C4.8706851,6.06672811 5.85368971,5.05128111 6.06726882,3.47025499 L6.06726882,3.47025499 C6.17703226,2.65649155 6.09754839,2.10443011 5.67796006,1.55399078 L5.67796006,1.55399078 C5.24052842,0.980301075 4.44460829,0.423913978 3.7162765,0.326046083 L3.7162765,0.326046083 C3.47674347,0.293603687 3.25505376,0.278463902 3.04958525,0.278463902 L3.04958525,0.278463902 C0.555305684,0.278463902 0.434187404,2.48130261 0.390390169,2.80572657" id="path-15"/>
        <path d="M0.390390169,2.80572657 C0.204387097,4.18560983 1.00463287,5.69418126 2.74678955,5.86180031 L2.74678955,5.86180031 C4.8706851,6.06672811 5.85368971,5.05128111 6.06726882,3.47025499 L6.06726882,3.47025499 C6.17703226,2.65649155 6.09754839,2.10443011 5.67796006,1.55399078 L5.67796006,1.55399078 C5.24052842,0.980301075 4.44460829,0.423913978 3.7162765,0.326046083 L3.7162765,0.326046083 C3.47674347,0.293603687 3.25505376,0.278463902 3.04958525,0.278463902 L3.04958525,0.278463902 C0.555305684,0.278463902 0.434187404,2.48130261 0.390390169,2.80572657" id="path-17"/>
        <path d="M0.390390169,2.80572657 C0.204387097,4.18560983 1.00463287,5.69418126 2.74678955,5.86180031 L2.74678955,5.86180031 C4.8706851,6.06672811 5.85368971,5.05128111 6.06726882,3.47025499 L6.06726882,3.47025499 C6.17703226,2.65649155 6.09754839,2.10443011 5.67796006,1.55399078 L5.67796006,1.55399078 C5.24052842,0.980301075 4.44460829,0.423913978 3.7162765,0.326046083 L3.7162765,0.326046083 C3.47674347,0.293603687 3.25505376,0.278463902 3.04958525,0.278463902 L3.04958525,0.278463902 C0.555305684,0.278463902 0.434187404,2.48130261 0.390390169,2.80572657" id="path-19"/>
        <path d="M0.390390169,2.80572657 C0.204387097,4.18560983 1.00463287,5.69418126 2.74678955,5.86180031 L2.74678955,5.86180031 C4.8706851,6.06672811 5.85368971,5.05128111 6.06726882,3.47025499 L6.06726882,3.47025499 C6.17703226,2.65649155 6.09754839,2.10443011 5.67796006,1.55399078 L5.67796006,1.55399078 C5.24052842,0.980301075 4.44460829,0.423913978 3.7162765,0.326046083 L3.7162765,0.326046083 C3.47674347,0.293603687 3.25505376,0.278463902 3.04958525,0.278463902 L3.04958525,0.278463902 C0.555305684,0.278463902 0.434187404,2.48130261 0.390390169,2.80572657" id="path-21"/>
        <path d="M0.390390169,2.80572657 C0.204387097,4.18560983 1.00463287,5.69418126 2.74678955,5.86180031 L2.74678955,5.86180031 C4.8706851,6.06672811 5.85368971,5.05128111 6.06726882,3.47025499 L6.06726882,3.47025499 C6.17703226,2.65649155 6.09754839,2.10443011 5.67796006,1.55399078 L5.67796006,1.55399078 C5.24052842,0.980301075 4.44460829,0.423913978 3.7162765,0.326046083 L3.7162765,0.326046083 C3.47674347,0.293603687 3.25505376,0.278463902 3.04958525,0.278463902 L3.04958525,0.278463902 C0.555305684,0.278463902 0.434187404,2.48130261 0.390390169,2.80572657" id="path-23"/>
        <path d="M0.390390169,2.80572657 C0.204387097,4.18560983 1.00463287,5.69418126 2.74678955,5.86180031 L2.74678955,5.86180031 C4.8706851,6.06672811 5.85368971,5.05128111 6.06726882,3.47025499 L6.06726882,3.47025499 C6.17703226,2.65649155 6.09754839,2.10443011 5.67796006,1.55399078 L5.67796006,1.55399078 C5.24052842,0.980301075 4.44460829,0.423913978 3.7162765,0.326046083 L3.7162765,0.326046083 C3.47674347,0.293603687 3.25505376,0.278463902 3.04958525,0.278463902 L3.04958525,0.278463902 C0.555305684,0.278463902 0.434187404,2.48130261 0.390390169,2.80572657" id="path-25"/>
        <path d="M0.390390169,2.80572657 C0.204387097,4.18560983 1.00463287,5.69418126 2.74678955,5.86180031 L2.74678955,5.86180031 C4.8706851,6.06672811 5.85368971,5.05128111 6.06726882,3.47025499 L6.06726882,3.47025499 C6.17703226,2.65649155 6.09754839,2.10443011 5.67796006,1.55399078 L5.67796006,1.55399078 C5.24052842,0.980301075 4.44460829,0.423913978 3.7162765,0.326046083 L3.7162765,0.326046083 C3.47674347,0.293603687 3.25505376,0.278463902 3.04958525,0.278463902 L3.04958525,0.278463902 C0.555305684,0.278463902 0.434187404,2.48130261 0.390390169,2.80572657" id="path-27"/>
        <path d="M0.390390169,2.80572657 C0.204387097,4.18560983 1.00463287,5.69418126 2.74678955,5.86180031 L2.74678955,5.86180031 C4.8706851,6.06672811 5.85368971,5.05128111 6.06726882,3.47025499 L6.06726882,3.47025499 C6.17703226,2.65649155 6.09754839,2.10443011 5.67796006,1.55399078 L5.67796006,1.55399078 C5.24052842,0.980301075 4.44460829,0.423913978 3.7162765,0.326046083 L3.7162765,0.326046083 C3.47674347,0.293603687 3.25505376,0.278463902 3.04958525,0.278463902 L3.04958525,0.278463902 C0.555305684,0.278463902 0.434187404,2.48130261 0.390390169,2.80572657" id="path-29"/>
        <path d="M0.180596006,2.70082949 C-0.00540706605,4.08071275 0.79483871,5.58874347 2.53699539,5.75690323 L2.53699539,5.75690323 C4.66035023,5.96183103 5.64389555,4.94638402 5.85747465,3.36589862 L5.85747465,3.36589862 C5.96669739,2.55159447 5.88775422,1.99953303 5.4681659,1.44963441 L5.4681659,1.44963441 C5.03073425,0.874863287 4.23481413,0.31847619 3.50594163,0.220608295 L3.50594163,0.220608295 C3.26694931,0.188706605 3.0452596,0.17356682 2.83925038,0.17356682 L2.83925038,0.17356682 C0.345511521,0.17356682 0.224393241,2.37640553 0.180596006,2.70082949" id="path-31"/>
        <path d="M0.180596006,2.70082949 C-0.00540706605,4.08071275 0.79483871,5.58874347 2.53699539,5.75690323 L2.53699539,5.75690323 C4.66035023,5.96183103 5.64389555,4.94638402 5.85747465,3.36589862 L5.85747465,3.36589862 C5.96669739,2.55159447 5.88775422,1.99953303 5.4681659,1.44963441 L5.4681659,1.44963441 C5.03073425,0.874863287 4.23481413,0.31847619 3.50594163,0.220608295 L3.50594163,0.220608295 C3.26694931,0.188706605 3.0452596,0.17356682 2.83925038,0.17356682 L2.83925038,0.17356682 C0.345511521,0.17356682 0.224393241,2.37640553 0.180596006,2.70082949" id="path-33"/>
        <path d="M0.180596006,2.70082949 C-0.00540706605,4.08071275 0.79483871,5.58874347 2.53699539,5.75690323 L2.53699539,5.75690323 C4.66035023,5.96183103 5.64389555,4.94638402 5.85747465,3.36589862 L5.85747465,3.36589862 C5.96669739,2.55159447 5.88775422,1.99953303 5.4681659,1.44963441 L5.4681659,1.44963441 C5.03073425,0.874863287 4.23481413,0.31847619 3.50594163,0.220608295 L3.50594163,0.220608295 C3.26694931,0.188706605 3.0452596,0.17356682 2.83925038,0.17356682 L2.83925038,0.17356682 C0.345511521,0.17356682 0.224393241,2.37640553 0.180596006,2.70082949" id="path-35"/>
        <path d="M0.180596006,2.70082949 C-0.00540706605,4.08071275 0.79483871,5.58874347 2.53699539,5.75690323 L2.53699539,5.75690323 C4.66035023,5.96183103 5.64389555,4.94638402 5.85747465,3.36589862 L5.85747465,3.36589862 C5.96669739,2.55159447 5.88775422,1.99953303 5.4681659,1.44963441 L5.4681659,1.44963441 C5.03073425,0.874863287 4.23481413,0.31847619 3.50594163,0.220608295 L3.50594163,0.220608295 C3.26694931,0.188706605 3.0452596,0.17356682 2.83925038,0.17356682 L2.83925038,0.17356682 C0.345511521,0.17356682 0.224393241,2.37640553 0.180596006,2.70082949" id="path-37"/>
        <path d="M0.180596006,2.70082949 C-0.00540706605,4.08071275 0.79483871,5.58874347 2.53699539,5.75690323 L2.53699539,5.75690323 C4.66035023,5.96183103 5.64389555,4.94638402 5.85747465,3.36589862 L5.85747465,3.36589862 C5.96669739,2.55159447 5.88775422,1.99953303 5.4681659,1.44963441 L5.4681659,1.44963441 C5.03073425,0.874863287 4.23481413,0.31847619 3.50594163,0.220608295 L3.50594163,0.220608295 C3.26694931,0.188706605 3.0452596,0.17356682 2.83925038,0.17356682 L2.83925038,0.17356682 C0.345511521,0.17356682 0.224393241,2.37640553 0.180596006,2.70082949" id="path-39"/>
        <path d="M0.180596006,2.70082949 C-0.00540706605,4.08071275 0.79483871,5.58874347 2.53699539,5.75690323 L2.53699539,5.75690323 C4.66035023,5.96183103 5.64389555,4.94638402 5.85747465,3.36589862 L5.85747465,3.36589862 C5.96669739,2.55159447 5.88775422,1.99953303 5.4681659,1.44963441 L5.4681659,1.44963441 C5.03073425,0.874863287 4.23481413,0.31847619 3.50594163,0.220608295 L3.50594163,0.220608295 C3.26694931,0.188706605 3.0452596,0.17356682 2.83925038,0.17356682 L2.83925038,0.17356682 C0.345511521,0.17356682 0.224393241,2.37640553 0.180596006,2.70082949" id="path-41"/>
        <path d="M0.180596006,2.70082949 C-0.00540706605,4.08071275 0.79483871,5.58874347 2.53699539,5.75690323 L2.53699539,5.75690323 C4.66035023,5.96183103 5.64389555,4.94638402 5.85747465,3.36589862 L5.85747465,3.36589862 C5.96669739,2.55159447 5.88775422,1.99953303 5.4681659,1.44963441 L5.4681659,1.44963441 C5.03073425,0.874863287 4.23481413,0.31847619 3.50594163,0.220608295 L3.50594163,0.220608295 C3.26694931,0.188706605 3.0452596,0.17356682 2.83925038,0.17356682 L2.83925038,0.17356682 C0.345511521,0.17356682 0.224393241,2.37640553 0.180596006,2.70082949" id="path-43"/>
        <path d="M0.180596006,2.70082949 C-0.00540706605,4.08071275 0.79483871,5.58874347 2.53699539,5.75690323 L2.53699539,5.75690323 C4.66035023,5.96183103 5.64389555,4.94638402 5.85747465,3.36589862 L5.85747465,3.36589862 C5.96669739,2.55159447 5.88775422,1.99953303 5.4681659,1.44963441 L5.4681659,1.44963441 C5.03073425,0.874863287 4.23481413,0.31847619 3.50594163,0.220608295 L3.50594163,0.220608295 C3.26694931,0.188706605 3.0452596,0.17356682 2.83925038,0.17356682 L2.83925038,0.17356682 C0.345511521,0.17356682 0.224393241,2.37640553 0.180596006,2.70082949" id="path-45"/>
        <path d="M0.180596006,2.70082949 C-0.00540706605,4.08071275 0.79483871,5.58874347 2.53699539,5.75690323 L2.53699539,5.75690323 C4.66035023,5.96183103 5.64389555,4.94638402 5.85747465,3.36589862 L5.85747465,3.36589862 C5.96669739,2.55159447 5.88775422,1.99953303 5.4681659,1.44963441 L5.4681659,1.44963441 C5.03073425,0.874863287 4.23481413,0.31847619 3.50594163,0.220608295 L3.50594163,0.220608295 C3.26694931,0.188706605 3.0452596,0.17356682 2.83925038,0.17356682 L2.83925038,0.17356682 C0.345511521,0.17356682 0.224393241,2.37640553 0.180596006,2.70082949" id="path-47"/>
        <path d="M0.180596006,2.70082949 C-0.00540706605,4.08071275 0.79483871,5.58874347 2.53699539,5.75690323 L2.53699539,5.75690323 C4.66035023,5.96183103 5.64389555,4.94638402 5.85747465,3.36589862 L5.85747465,3.36589862 C5.96669739,2.55159447 5.88775422,1.99953303 5.4681659,1.44963441 L5.4681659,1.44963441 C5.03073425,0.874863287 4.23481413,0.31847619 3.50594163,0.220608295 L3.50594163,0.220608295 C3.26694931,0.188706605 3.0452596,0.17356682 2.83925038,0.17356682 L2.83925038,0.17356682 C0.345511521,0.17356682 0.224393241,2.37640553 0.180596006,2.70082949" id="path-49"/>
        <path d="M0.180596006,2.70082949 C-0.00540706605,4.08071275 0.79483871,5.58874347 2.53699539,5.75690323 L2.53699539,5.75690323 C4.66035023,5.96183103 5.64389555,4.94638402 5.85747465,3.36589862 L5.85747465,3.36589862 C5.96669739,2.55159447 5.88775422,1.99953303 5.4681659,1.44963441 L5.4681659,1.44963441 C5.03073425,0.874863287 4.23481413,0.31847619 3.50594163,0.220608295 L3.50594163,0.220608295 C3.26694931,0.188706605 3.0452596,0.17356682 2.83925038,0.17356682 L2.83925038,0.17356682 C0.345511521,0.17356682 0.224393241,2.37640553 0.180596006,2.70082949" id="path-51"/>
        <path d="M0.180596006,2.70082949 C-0.00540706605,4.08071275 0.79483871,5.58874347 2.53699539,5.75690323 L2.53699539,5.75690323 C4.66035023,5.96183103 5.64389555,4.94638402 5.85747465,3.36589862 L5.85747465,3.36589862 C5.96669739,2.55159447 5.88775422,1.99953303 5.4681659,1.44963441 L5.4681659,1.44963441 C5.03073425,0.874863287 4.23481413,0.31847619 3.50594163,0.220608295 L3.50594163,0.220608295 C3.26694931,0.188706605 3.0452596,0.17356682 2.83925038,0.17356682 L2.83925038,0.17356682 C0.345511521,0.17356682 0.224393241,2.37640553 0.180596006,2.70082949" id="path-53"/>
        <path d="M0.180596006,2.70082949 C-0.00540706605,4.08071275 0.79483871,5.58874347 2.53699539,5.75690323 L2.53699539,5.75690323 C4.66035023,5.96183103 5.64389555,4.94638402 5.85747465,3.36589862 L5.85747465,3.36589862 C5.96669739,2.55159447 5.88775422,1.99953303 5.4681659,1.44963441 L5.4681659,1.44963441 C5.03073425,0.874863287 4.23481413,0.31847619 3.50594163,0.220608295 L3.50594163,0.220608295 C3.26694931,0.188706605 3.0452596,0.17356682 2.83925038,0.17356682 L2.83925038,0.17356682 C0.345511521,0.17356682 0.224393241,2.37640553 0.180596006,2.70082949" id="path-55"/>
        <path d="M0.180596006,2.70082949 C-0.00540706605,4.08071275 0.79483871,5.58874347 2.53699539,5.75690323 L2.53699539,5.75690323 C4.66035023,5.96183103 5.64389555,4.94638402 5.85747465,3.36589862 L5.85747465,3.36589862 C5.96669739,2.55159447 5.88775422,1.99953303 5.4681659,1.44963441 L5.4681659,1.44963441 C5.03073425,0.874863287 4.23481413,0.31847619 3.50594163,0.220608295 L3.50594163,0.220608295 C3.26694931,0.188706605 3.0452596,0.17356682 2.83925038,0.17356682 L2.83925038,0.17356682 C0.345511521,0.17356682 0.224393241,2.37640553 0.180596006,2.70082949" id="path-57"/>
        <path d="M0.180596006,2.70082949 C-0.00540706605,4.08071275 0.79483871,5.58874347 2.53699539,5.75690323 L2.53699539,5.75690323 C4.66035023,5.96183103 5.64389555,4.94638402 5.85747465,3.36589862 L5.85747465,3.36589862 C5.96669739,2.55159447 5.88775422,1.99953303 5.4681659,1.44963441 L5.4681659,1.44963441 C5.03073425,0.874863287 4.23481413,0.31847619 3.50594163,0.220608295 L3.50594163,0.220608295 C3.26694931,0.188706605 3.0452596,0.17356682 2.83925038,0.17356682 L2.83925038,0.17356682 C0.345511521,0.17356682 0.224393241,2.37640553 0.180596006,2.70082949" id="path-59"/>
        <path d="M2.27745622,0.540165899 C-0.762396313,2.00223656 0.609376344,4.35214747 0.772669739,4.69171121 L0.772669739,4.69171121 C1.41502919,6.02833794 3.00957296,6.9004977 4.65656528,6.02941935 L4.65656528,6.02941935 C6.66474962,4.96801229 6.94483564,3.48917972 6.20839324,1.96006144 L6.20839324,1.96006144 C5.82935791,1.17171121 5.43626421,0.727250384 4.74145622,0.483391705 L4.74145622,0.483391705 C4.38675269,0.359569892 3.95905376,0.289278034 3.53243625,0.289278034 L3.53243625,0.289278034 C3.08473118,0.289278034 2.63810753,0.366058372 2.27745622,0.540165899" id="path-61"/>
        <path d="M2.27745622,0.540165899 C-0.762396313,2.00223656 0.609376344,4.35214747 0.772669739,4.69171121 L0.772669739,4.69171121 C1.41502919,6.02833794 3.00957296,6.9004977 4.65656528,6.02941935 L4.65656528,6.02941935 C6.66474962,4.96801229 6.94483564,3.48917972 6.20839324,1.96006144 L6.20839324,1.96006144 C5.82935791,1.17171121 5.43626421,0.727250384 4.74145622,0.483391705 L4.74145622,0.483391705 C4.38675269,0.359569892 3.95905376,0.289278034 3.53243625,0.289278034 L3.53243625,0.289278034 C3.08473118,0.289278034 2.63810753,0.366058372 2.27745622,0.540165899" id="path-63"/>
        <path d="M2.27745622,0.540165899 C-0.762396313,2.00223656 0.609376344,4.35214747 0.772669739,4.69171121 L0.772669739,4.69171121 C1.41502919,6.02833794 3.00957296,6.9004977 4.65656528,6.02941935 L4.65656528,6.02941935 C6.66474962,4.96801229 6.94483564,3.48917972 6.20839324,1.96006144 L6.20839324,1.96006144 C5.82935791,1.17171121 5.43626421,0.727250384 4.74145622,0.483391705 L4.74145622,0.483391705 C4.38675269,0.359569892 3.95905376,0.289278034 3.53243625,0.289278034 L3.53243625,0.289278034 C3.08473118,0.289278034 2.63810753,0.366058372 2.27745622,0.540165899" id="path-65"/>
        <path d="M2.27745622,0.540165899 C-0.762396313,2.00223656 0.609376344,4.35214747 0.772669739,4.69171121 L0.772669739,4.69171121 C1.41502919,6.02833794 3.00957296,6.9004977 4.65656528,6.02941935 L4.65656528,6.02941935 C6.66474962,4.96801229 6.94483564,3.48917972 6.20839324,1.96006144 L6.20839324,1.96006144 C5.82935791,1.17171121 5.43626421,0.727250384 4.74145622,0.483391705 L4.74145622,0.483391705 C4.38675269,0.359569892 3.95905376,0.289278034 3.53243625,0.289278034 L3.53243625,0.289278034 C3.08473118,0.289278034 2.63810753,0.366058372 2.27745622,0.540165899" id="path-67"/>
        <path d="M2.27745622,0.540165899 C-0.762396313,2.00223656 0.609376344,4.35214747 0.772669739,4.69171121 L0.772669739,4.69171121 C1.41502919,6.02833794 3.00957296,6.9004977 4.65656528,6.02941935 L4.65656528,6.02941935 C6.66474962,4.96801229 6.94483564,3.48917972 6.20839324,1.96006144 L6.20839324,1.96006144 C5.82935791,1.17171121 5.43626421,0.727250384 4.74145622,0.483391705 L4.74145622,0.483391705 C4.38675269,0.359569892 3.95905376,0.289278034 3.53243625,0.289278034 L3.53243625,0.289278034 C3.08473118,0.289278034 2.63810753,0.366058372 2.27745622,0.540165899" id="path-69"/>
        <path d="M2.27745622,0.540165899 C-0.762396313,2.00223656 0.609376344,4.35214747 0.772669739,4.69171121 L0.772669739,4.69171121 C1.41502919,6.02833794 3.00957296,6.9004977 4.65656528,6.02941935 L4.65656528,6.02941935 C6.66474962,4.96801229 6.94483564,3.48917972 6.20839324,1.96006144 L6.20839324,1.96006144 C5.82935791,1.17171121 5.43626421,0.727250384 4.74145622,0.483391705 L4.74145622,0.483391705 C4.38675269,0.359569892 3.95905376,0.289278034 3.53243625,0.289278034 L3.53243625,0.289278034 C3.08473118,0.289278034 2.63810753,0.366058372 2.27745622,0.540165899" id="path-71"/>
        <path d="M2.27745622,0.540165899 C-0.762396313,2.00223656 0.609376344,4.35214747 0.772669739,4.69171121 L0.772669739,4.69171121 C1.41502919,6.02833794 3.00957296,6.9004977 4.65656528,6.02941935 L4.65656528,6.02941935 C6.66474962,4.96801229 6.94483564,3.48917972 6.20839324,1.96006144 L6.20839324,1.96006144 C5.82935791,1.17171121 5.43626421,0.727250384 4.74145622,0.483391705 L4.74145622,0.483391705 C4.38675269,0.359569892 3.95905376,0.289278034 3.53243625,0.289278034 L3.53243625,0.289278034 C3.08473118,0.289278034 2.63810753,0.366058372 2.27745622,0.540165899" id="path-73"/>
        <path d="M2.27745622,0.540165899 C-0.762396313,2.00223656 0.609376344,4.35214747 0.772669739,4.69171121 L0.772669739,4.69171121 C1.41502919,6.02833794 3.00957296,6.9004977 4.65656528,6.02941935 L4.65656528,6.02941935 C6.66474962,4.96801229 6.94483564,3.48917972 6.20839324,1.96006144 L6.20839324,1.96006144 C5.82935791,1.17171121 5.43626421,0.727250384 4.74145622,0.483391705 L4.74145622,0.483391705 C4.38675269,0.359569892 3.95905376,0.289278034 3.53243625,0.289278034 L3.53243625,0.289278034 C3.08473118,0.289278034 2.63810753,0.366058372 2.27745622,0.540165899" id="path-75"/>
        <path d="M2.27745622,0.540165899 C-0.762396313,2.00223656 0.609376344,4.35214747 0.772669739,4.69171121 L0.772669739,4.69171121 C1.41502919,6.02833794 3.00957296,6.9004977 4.65656528,6.02941935 L4.65656528,6.02941935 C6.66474962,4.96801229 6.94483564,3.48917972 6.20839324,1.96006144 L6.20839324,1.96006144 C5.82935791,1.17171121 5.43626421,0.727250384 4.74145622,0.483391705 L4.74145622,0.483391705 C4.38675269,0.359569892 3.95905376,0.289278034 3.53243625,0.289278034 L3.53243625,0.289278034 C3.08473118,0.289278034 2.63810753,0.366058372 2.27745622,0.540165899" id="path-77"/>
        <path d="M2.27745622,0.540165899 C-0.762396313,2.00223656 0.609376344,4.35214747 0.772669739,4.69171121 L0.772669739,4.69171121 C1.41502919,6.02833794 3.00957296,6.9004977 4.65656528,6.02941935 L4.65656528,6.02941935 C6.66474962,4.96801229 6.94483564,3.48917972 6.20839324,1.96006144 L6.20839324,1.96006144 C5.82935791,1.17171121 5.43626421,0.727250384 4.74145622,0.483391705 L4.74145622,0.483391705 C4.38675269,0.359569892 3.95905376,0.289278034 3.53243625,0.289278034 L3.53243625,0.289278034 C3.08473118,0.289278034 2.63810753,0.366058372 2.27745622,0.540165899" id="path-79"/>
        <path d="M2.27745622,0.540165899 C-0.762396313,2.00223656 0.609376344,4.35214747 0.772669739,4.69171121 L0.772669739,4.69171121 C1.41502919,6.02833794 3.00957296,6.9004977 4.65656528,6.02941935 L4.65656528,6.02941935 C6.66474962,4.96801229 6.94483564,3.48917972 6.20839324,1.96006144 L6.20839324,1.96006144 C5.82935791,1.17171121 5.43626421,0.727250384 4.74145622,0.483391705 L4.74145622,0.483391705 C4.38675269,0.359569892 3.95905376,0.289278034 3.53243625,0.289278034 L3.53243625,0.289278034 C3.08473118,0.289278034 2.63810753,0.366058372 2.27745622,0.540165899" id="path-81"/>
        <path d="M2.27745622,0.540165899 C-0.762396313,2.00223656 0.609376344,4.35214747 0.772669739,4.69171121 L0.772669739,4.69171121 C1.41502919,6.02833794 3.00957296,6.9004977 4.65656528,6.02941935 L4.65656528,6.02941935 C6.66474962,4.96801229 6.94483564,3.48917972 6.20839324,1.96006144 L6.20839324,1.96006144 C5.82935791,1.17171121 5.43626421,0.727250384 4.74145622,0.483391705 L4.74145622,0.483391705 C4.38675269,0.359569892 3.95905376,0.289278034 3.53243625,0.289278034 L3.53243625,0.289278034 C3.08473118,0.289278034 2.63810753,0.366058372 2.27745622,0.540165899" id="path-83"/>
        <path d="M2.27745622,0.540165899 C-0.762396313,2.00223656 0.609376344,4.35214747 0.772669739,4.69171121 L0.772669739,4.69171121 C1.41502919,6.02833794 3.00957296,6.9004977 4.65656528,6.02941935 L4.65656528,6.02941935 C6.66474962,4.96801229 6.94483564,3.48917972 6.20839324,1.96006144 L6.20839324,1.96006144 C5.82935791,1.17171121 5.43626421,0.727250384 4.74145622,0.483391705 L4.74145622,0.483391705 C4.38675269,0.359569892 3.95905376,0.289278034 3.53243625,0.289278034 L3.53243625,0.289278034 C3.08473118,0.289278034 2.63810753,0.366058372 2.27745622,0.540165899" id="path-85"/>
        <path d="M2.27745622,0.540165899 C-0.762396313,2.00223656 0.609376344,4.35214747 0.772669739,4.69171121 L0.772669739,4.69171121 C1.41502919,6.02833794 3.00957296,6.9004977 4.65656528,6.02941935 L4.65656528,6.02941935 C6.66474962,4.96801229 6.94483564,3.48917972 6.20839324,1.96006144 L6.20839324,1.96006144 C5.82935791,1.17171121 5.43626421,0.727250384 4.74145622,0.483391705 L4.74145622,0.483391705 C4.38675269,0.359569892 3.95905376,0.289278034 3.53243625,0.289278034 L3.53243625,0.289278034 C3.08473118,0.289278034 2.63810753,0.366058372 2.27745622,0.540165899" id="path-87"/>
        <path d="M2.27745622,0.540165899 C-0.762396313,2.00223656 0.609376344,4.35214747 0.772669739,4.69171121 L0.772669739,4.69171121 C1.41502919,6.02833794 3.00957296,6.9004977 4.65656528,6.02941935 L4.65656528,6.02941935 C6.66474962,4.96801229 6.94483564,3.48917972 6.20839324,1.96006144 L6.20839324,1.96006144 C5.82935791,1.17171121 5.43626421,0.727250384 4.74145622,0.483391705 L4.74145622,0.483391705 C4.38675269,0.359569892 3.95905376,0.289278034 3.53243625,0.289278034 L3.53243625,0.289278034 C3.08473118,0.289278034 2.63810753,0.366058372 2.27745622,0.540165899" id="path-89"/>
        <path d="M0.395256528,2.90089094 C0.196817204,4.36999078 1.04843011,5.97534869 2.90305376,6.15378187 L2.90305376,6.15378187 C5.16428879,6.37222734 6.21163748,5.29081413 6.43765284,3.60867588 L6.43765284,3.60867588 C6.55444547,2.7424639 6.47063594,2.15363441 6.02401229,1.56913057 L6.02401229,1.56913057 C5.5584639,0.957591398 4.71117665,0.365517665 3.93526267,0.260620584 L3.93526267,0.260620584 C3.68058986,0.226556068 3.44430108,0.210334869 3.22585561,0.210334869 L3.22585561,0.210334869 C0.570445469,0.210334869 0.441757296,2.55537942 0.395256528,2.90089094" id="path-91"/>
        <path d="M0.395256528,2.90089094 C0.196817204,4.36999078 1.04843011,5.97534869 2.90305376,6.15378187 L2.90305376,6.15378187 C5.16428879,6.37222734 6.21163748,5.29081413 6.43765284,3.60867588 L6.43765284,3.60867588 C6.55444547,2.7424639 6.47063594,2.15363441 6.02401229,1.56913057 L6.02401229,1.56913057 C5.5584639,0.957591398 4.71117665,0.365517665 3.93526267,0.260620584 L3.93526267,0.260620584 C3.68058986,0.226556068 3.44430108,0.210334869 3.22585561,0.210334869 L3.22585561,0.210334869 C0.570445469,0.210334869 0.441757296,2.55537942 0.395256528,2.90089094" id="path-93"/>
        <path d="M0.395256528,2.90089094 C0.196817204,4.36999078 1.04843011,5.97534869 2.90305376,6.15378187 L2.90305376,6.15378187 C5.16428879,6.37222734 6.21163748,5.29081413 6.43765284,3.60867588 L6.43765284,3.60867588 C6.55444547,2.7424639 6.47063594,2.15363441 6.02401229,1.56913057 L6.02401229,1.56913057 C5.5584639,0.957591398 4.71117665,0.365517665 3.93526267,0.260620584 L3.93526267,0.260620584 C3.68058986,0.226556068 3.44430108,0.210334869 3.22585561,0.210334869 L3.22585561,0.210334869 C0.570445469,0.210334869 0.441757296,2.55537942 0.395256528,2.90089094" id="path-95"/>
        <path d="M0.395256528,2.90089094 C0.196817204,4.36999078 1.04843011,5.97534869 2.90305376,6.15378187 L2.90305376,6.15378187 C5.16428879,6.37222734 6.21163748,5.29081413 6.43765284,3.60867588 L6.43765284,3.60867588 C6.55444547,2.7424639 6.47063594,2.15363441 6.02401229,1.56913057 L6.02401229,1.56913057 C5.5584639,0.957591398 4.71117665,0.365517665 3.93526267,0.260620584 L3.93526267,0.260620584 C3.68058986,0.226556068 3.44430108,0.210334869 3.22585561,0.210334869 L3.22585561,0.210334869 C0.570445469,0.210334869 0.441757296,2.55537942 0.395256528,2.90089094" id="path-97"/>
        <path d="M0.395256528,2.90089094 C0.196817204,4.36999078 1.04843011,5.97534869 2.90305376,6.15378187 L2.90305376,6.15378187 C5.16428879,6.37222734 6.21163748,5.29081413 6.43765284,3.60867588 L6.43765284,3.60867588 C6.55444547,2.7424639 6.47063594,2.15363441 6.02401229,1.56913057 L6.02401229,1.56913057 C5.5584639,0.957591398 4.71117665,0.365517665 3.93526267,0.260620584 L3.93526267,0.260620584 C3.68058986,0.226556068 3.44430108,0.210334869 3.22585561,0.210334869 L3.22585561,0.210334869 C0.570445469,0.210334869 0.441757296,2.55537942 0.395256528,2.90089094" id="path-99"/>
        <path d="M0.395256528,2.90089094 C0.196817204,4.36999078 1.04843011,5.97534869 2.90305376,6.15378187 L2.90305376,6.15378187 C5.16428879,6.37222734 6.21163748,5.29081413 6.43765284,3.60867588 L6.43765284,3.60867588 C6.55444547,2.7424639 6.47063594,2.15363441 6.02401229,1.56913057 L6.02401229,1.56913057 C5.5584639,0.957591398 4.71117665,0.365517665 3.93526267,0.260620584 L3.93526267,0.260620584 C3.68058986,0.226556068 3.44430108,0.210334869 3.22585561,0.210334869 L3.22585561,0.210334869 C0.570445469,0.210334869 0.441757296,2.55537942 0.395256528,2.90089094" id="path-101"/>
        <path d="M0.395256528,2.90089094 C0.196817204,4.36999078 1.04843011,5.97534869 2.90305376,6.15378187 L2.90305376,6.15378187 C5.16428879,6.37222734 6.21163748,5.29081413 6.43765284,3.60867588 L6.43765284,3.60867588 C6.55444547,2.7424639 6.47063594,2.15363441 6.02401229,1.56913057 L6.02401229,1.56913057 C5.5584639,0.957591398 4.71117665,0.365517665 3.93526267,0.260620584 L3.93526267,0.260620584 C3.68058986,0.226556068 3.44430108,0.210334869 3.22585561,0.210334869 L3.22585561,0.210334869 C0.570445469,0.210334869 0.441757296,2.55537942 0.395256528,2.90089094" id="path-103"/>
        <path d="M0.395256528,2.90089094 C0.196817204,4.36999078 1.04843011,5.97534869 2.90305376,6.15378187 L2.90305376,6.15378187 C5.16428879,6.37222734 6.21163748,5.29081413 6.43765284,3.60867588 L6.43765284,3.60867588 C6.55444547,2.7424639 6.47063594,2.15363441 6.02401229,1.56913057 L6.02401229,1.56913057 C5.5584639,0.957591398 4.71117665,0.365517665 3.93526267,0.260620584 L3.93526267,0.260620584 C3.68058986,0.226556068 3.44430108,0.210334869 3.22585561,0.210334869 L3.22585561,0.210334869 C0.570445469,0.210334869 0.441757296,2.55537942 0.395256528,2.90089094" id="path-105"/>
        <path d="M0.395256528,2.90089094 C0.196817204,4.36999078 1.04843011,5.97534869 2.90305376,6.15378187 L2.90305376,6.15378187 C5.16428879,6.37222734 6.21163748,5.29081413 6.43765284,3.60867588 L6.43765284,3.60867588 C6.55444547,2.7424639 6.47063594,2.15363441 6.02401229,1.56913057 L6.02401229,1.56913057 C5.5584639,0.957591398 4.71117665,0.365517665 3.93526267,0.260620584 L3.93526267,0.260620584 C3.68058986,0.226556068 3.44430108,0.210334869 3.22585561,0.210334869 L3.22585561,0.210334869 C0.570445469,0.210334869 0.441757296,2.55537942 0.395256528,2.90089094" id="path-107"/>
        <path d="M0.395256528,2.90089094 C0.196817204,4.36999078 1.04843011,5.97534869 2.90305376,6.15378187 L2.90305376,6.15378187 C5.16428879,6.37222734 6.21163748,5.29081413 6.43765284,3.60867588 L6.43765284,3.60867588 C6.55444547,2.7424639 6.47063594,2.15363441 6.02401229,1.56913057 L6.02401229,1.56913057 C5.5584639,0.957591398 4.71117665,0.365517665 3.93526267,0.260620584 L3.93526267,0.260620584 C3.68058986,0.226556068 3.44430108,0.210334869 3.22585561,0.210334869 L3.22585561,0.210334869 C0.570445469,0.210334869 0.441757296,2.55537942 0.395256528,2.90089094" id="path-109"/>
        <path d="M0.395256528,2.90089094 C0.196817204,4.36999078 1.04843011,5.97534869 2.90305376,6.15378187 L2.90305376,6.15378187 C5.16428879,6.37222734 6.21163748,5.29081413 6.43765284,3.60867588 L6.43765284,3.60867588 C6.55444547,2.7424639 6.47063594,2.15363441 6.02401229,1.56913057 L6.02401229,1.56913057 C5.5584639,0.957591398 4.71117665,0.365517665 3.93526267,0.260620584 L3.93526267,0.260620584 C3.68058986,0.226556068 3.44430108,0.210334869 3.22585561,0.210334869 L3.22585561,0.210334869 C0.570445469,0.210334869 0.441757296,2.55537942 0.395256528,2.90089094" id="path-111"/>
        <path d="M0.395256528,2.90089094 C0.196817204,4.36999078 1.04843011,5.97534869 2.90305376,6.15378187 L2.90305376,6.15378187 C5.16428879,6.37222734 6.21163748,5.29081413 6.43765284,3.60867588 L6.43765284,3.60867588 C6.55444547,2.7424639 6.47063594,2.15363441 6.02401229,1.56913057 L6.02401229,1.56913057 C5.5584639,0.957591398 4.71117665,0.365517665 3.93526267,0.260620584 L3.93526267,0.260620584 C3.68058986,0.226556068 3.44430108,0.210334869 3.22585561,0.210334869 L3.22585561,0.210334869 C0.570445469,0.210334869 0.441757296,2.55537942 0.395256528,2.90089094" id="path-113"/>
        <path d="M0.395256528,2.90089094 C0.196817204,4.36999078 1.04843011,5.97534869 2.90305376,6.15378187 L2.90305376,6.15378187 C5.16428879,6.37222734 6.21163748,5.29081413 6.43765284,3.60867588 L6.43765284,3.60867588 C6.55444547,2.7424639 6.47063594,2.15363441 6.02401229,1.56913057 L6.02401229,1.56913057 C5.5584639,0.957591398 4.71117665,0.365517665 3.93526267,0.260620584 L3.93526267,0.260620584 C3.68058986,0.226556068 3.44430108,0.210334869 3.22585561,0.210334869 L3.22585561,0.210334869 C0.570445469,0.210334869 0.441757296,2.55537942 0.395256528,2.90089094" id="path-115"/>
        <path d="M0.395256528,2.90089094 C0.196817204,4.36999078 1.04843011,5.97534869 2.90305376,6.15378187 L2.90305376,6.15378187 C5.16428879,6.37222734 6.21163748,5.29081413 6.43765284,3.60867588 L6.43765284,3.60867588 C6.55444547,2.7424639 6.47063594,2.15363441 6.02401229,1.56913057 L6.02401229,1.56913057 C5.5584639,0.957591398 4.71117665,0.365517665 3.93526267,0.260620584 L3.93526267,0.260620584 C3.68058986,0.226556068 3.44430108,0.210334869 3.22585561,0.210334869 L3.22585561,0.210334869 C0.570445469,0.210334869 0.441757296,2.55537942 0.395256528,2.90089094" id="path-117"/>
        <path d="M0.395256528,2.90089094 C0.196817204,4.36999078 1.04843011,5.97534869 2.90305376,6.15378187 L2.90305376,6.15378187 C5.16428879,6.37222734 6.21163748,5.29081413 6.43765284,3.60867588 L6.43765284,3.60867588 C6.55444547,2.7424639 6.47063594,2.15363441 6.02401229,1.56913057 L6.02401229,1.56913057 C5.5584639,0.957591398 4.71117665,0.365517665 3.93526267,0.260620584 L3.93526267,0.260620584 C3.68058986,0.226556068 3.44430108,0.210334869 3.22585561,0.210334869 L3.22585561,0.210334869 C0.570445469,0.210334869 0.441757296,2.55537942 0.395256528,2.90089094" id="path-119"/>
        <polygon id="path-121" points="0 0.198222347 14.6501189 0.198222347 14.6501189 7.56970318 0 7.56970318"/>
        <polygon id="path-123" points="0 0.234720737 11.2275023 0.234720737 11.2275023 7.56989247 0 7.56989247"/>
    </defs>
    <g id="icons/notebook/stash" stroke="none" stroke-width="1" fill="none" fill-rule="evenodd">
        <g id="Group-212" transform="translate(0.500000, 0.500000)">
            <path d="M8.50088111,4.85895177 C8.31487803,6.23937573 9.11512381,7.74686575 10.8572805,7.9150255 C12.981176,8.1199533 13.9641806,7.10396559 14.1777598,5.52402089 C14.2875232,4.70971674 14.20858,4.1576553 13.788451,3.60775668 C13.3515601,3.03352627 12.5550992,2.47713917 11.8267674,2.37927127 C8.68688418,1.9553573 8.54846329,4.50803318 8.50088111,4.85895177" id="Fill-1" fill="#FFC300"/>
            <g id="Group-48" transform="translate(8.110599, 2.053279)">
                <g id="Group-5">
                    <mask id="mask-2" fill="white">
                        <use xlink:href="#path-1"/>
                    </mask>
                    <g id="Clip-4"/>
                    <path d="M0.519078341,4.27698925 C1.16089708,3.44430108 2.89332104,1.33987097 4.7560553,0.573149002" id="Stroke-3" stroke="#EDA569" stroke-width="0.5" mask="url(#mask-2)"/>
                </g>
                <g id="Group-8">
                    <mask id="mask-4" fill="white">
                        <use xlink:href="#path-3"/>
                    </mask>
                    <g id="Clip-7"/>
                    <path d="M5.16212596,0.889949002 C5.16212596,0.889949002 2.39208602,3.03925776 0.857560676,4.86522396" id="Stroke-6" stroke="#EDA569" stroke-width="0.5" mask="url(#mask-4)"/>
                </g>
                <g id="Group-11">
                    <mask id="mask-6" fill="white">
                        <use xlink:href="#path-5"/>
                    </mask>
                    <g id="Clip-10"/>
                    <line x1="1.41675945" y1="5.35791582" x2="5.60669493" y2="1.3453321" id="Stroke-9" stroke="#EDA569" stroke-width="0.5" mask="url(#mask-6)"/>
                </g>
                <g id="Group-14">
                    <mask id="mask-8" fill="white">
                        <use xlink:href="#path-7"/>
                    </mask>
                    <g id="Clip-13"/>
                    <path d="M4.51473794,2.53185868 C4.66126943,2.90278341 5.05274101,4.24157296 5.12032934,5.4397788" id="Stroke-12" stroke="#EDA569" stroke-width="0.5" mask="url(#mask-8)"/>
                </g>
                <g id="Group-17">
                    <mask id="mask-10" fill="white">
                        <use xlink:href="#path-9"/>
                    </mask>
                    <g id="Clip-16"/>
                    <path d="M3.90698372,3.0334722 C4.10488233,3.68934931 4.31143226,4.47553671 4.21356436,5.81865192" id="Stroke-15" stroke="#EDA569" stroke-width="0.5" mask="url(#mask-10)"/>
                </g>
                <g id="Group-20">
                    <mask id="mask-12" fill="white">
                        <use xlink:href="#path-11"/>
                    </mask>
                    <g id="Clip-19"/>
                    <path d="M3.3060424,0.113223963 C3.16654009,-0.24147957 3.4131023,0.397094931 3.6174894,1.16543902" id="Stroke-18" stroke="#EDA569" stroke-width="0.5" mask="url(#mask-12)"/>
                </g>
                <g id="Group-23">
                    <mask id="mask-14" fill="white">
                        <use xlink:href="#path-13"/>
                    </mask>
                    <g id="Clip-22"/>
                    <path d="M3.10646759,3.86697143 C3.3124768,4.61152442 3.38655361,5.45664885 3.38439078,5.93625561" id="Stroke-21" stroke="#EDA569" stroke-width="0.5" mask="url(#mask-14)"/>
                </g>
                <g id="Group-26">
                    <mask id="mask-16" fill="white">
                        <use xlink:href="#path-15"/>
                    </mask>
                    <g id="Clip-25"/>
                    <path d="M2.27004854,0.361408295 C2.4144172,0.842637174 2.54040184,1.30710415 2.6512467,1.74886144" id="Stroke-24" stroke="#EDA569" stroke-width="0.5" mask="url(#mask-16)"/>
                </g>
                <g id="Group-29">
                    <mask id="mask-18" fill="white">
                        <use xlink:href="#path-17"/>
                    </mask>
                    <g id="Clip-28"/>
                    <path d="M4.98996498,3.95964854 C5.25815545,3.78337819 5.52850876,3.58331674 5.79615853,3.35621997" id="Stroke-27" stroke="#EDA569" stroke-width="0.5" mask="url(#mask-18)"/>
                </g>
                <g id="Group-32">
                    <mask id="mask-20" fill="white">
                        <use xlink:href="#path-19"/>
                    </mask>
                    <g id="Clip-31"/>
                    <line x1="4.6974427" y1="3.0041659" x2="6.22385745" y2="3.42321352" id="Stroke-30" stroke="#EDA569" stroke-width="0.5" mask="url(#mask-20)"/>
                </g>
                <g id="Group-35">
                    <mask id="mask-22" fill="white">
                        <use xlink:href="#path-21"/>
                    </mask>
                    <g id="Clip-34"/>
                    <line x1="4.69111644" y1="2.26258679" x2="6.46301198" y2="2.680553" id="Stroke-33" stroke="#EDA569" stroke-width="0.5" mask="url(#mask-22)"/>
                </g>
                <g id="Group-38">
                    <mask id="mask-24" fill="white">
                        <use xlink:href="#path-23"/>
                    </mask>
                    <g id="Clip-37"/>
                    <line x1="5.119302" y1="1.85732719" x2="6.0693235" y2="1.96709063" id="Stroke-36" stroke="#EDA569" stroke-width="0.5" mask="url(#mask-24)"/>
                </g>
                <g id="Group-41">
                    <mask id="mask-26" fill="white">
                        <use xlink:href="#path-25"/>
                    </mask>
                    <g id="Clip-40"/>
                    <path d="M0.209686022,2.85790476 C0.440027035,2.84222427 1.20620829,2.90278341 1.53549862,2.93252227" id="Stroke-39" stroke="#EDA569" stroke-width="0.5" mask="url(#mask-26)"/>
                </g>
                <g id="Group-44">
                    <mask id="mask-28" fill="white">
                        <use xlink:href="#path-27"/>
                    </mask>
                    <g id="Clip-43"/>
                    <path d="M0.298361905,2.20208172 C0.553034716,2.21019232 1.52630661,2.31400799 1.98807005,2.51352873" id="Stroke-42" stroke="#EDA569" stroke-width="0.5" mask="url(#mask-28)"/>
                </g>
                <g id="Group-47">
                    <mask id="mask-30" fill="white">
                        <use xlink:href="#path-29"/>
                    </mask>
                    <g id="Clip-46"/>
                    <path d="M0.812141321,1.39686144 C0.812141321,1.39686144 1.61022427,1.54123011 2.22068203,2.08301813" id="Stroke-45" stroke="#EDA569" stroke-width="0.5" mask="url(#mask-30)"/>
                </g>
            </g>
            <g id="Group-53" transform="translate(4.866359, 0.431159)">
                <path d="M0.180650077,2.70082949 C-0.00535299539,4.08125346 0.79489278,5.58874347 2.53650876,5.75690323 C4.6604043,5.96183103 5.64394962,4.94584332 5.85752873,3.36589862 C5.96675146,2.55159447 5.88780829,1.99953303 5.46821997,1.44963441 C5.03078833,0.875403994 4.2348682,0.319016897 3.5059957,0.220608295 C0.366112442,-0.202764977 0.228232258,2.34991091 0.180650077,2.70082949" id="Fill-49" fill="#EE6E62"/>
                <path d="M5.73186851,3.95386298 C5.49720184,3.89168172 5.24631398,3.84788449 4.96298372,3.84788449 C4.58124485,3.84788449 4.19842458,3.88735607 3.82425561,3.88735607 C1.27428326,3.88735607 2.63037542,1.98677235 0.487014439,1.52068326 C0.238289401,2.04570937 0.200439939,2.55721782 0.180433794,2.70104578 C-0.00502857143,4.08092903 0.794676498,5.58895975 2.53683318,5.7565788 C4.38280553,5.93501198 5.36581014,5.18937757 5.73186851,3.95386298" id="Fill-51" fill="#BF4A40"/>
            </g>
            <g id="Group-99" transform="translate(4.866359, 0.431159)">
                <g id="Group-56">
                    <mask id="mask-32" fill="white">
                        <use xlink:href="#path-31"/>
                    </mask>
                    <g id="Clip-55"/>
                    <path d="M0.30944639,4.17220031 C0.951265131,3.33951214 2.68314839,1.23508203 4.54588264,0.468360061" id="Stroke-54" stroke="#BF4A40" stroke-width="0.5" stroke-linecap="round" stroke-linejoin="round" mask="url(#mask-32)"/>
                </g>
                <g id="Group-59">
                    <mask id="mask-34" fill="white">
                        <use xlink:href="#path-33"/>
                    </mask>
                    <g id="Clip-58"/>
                    <path d="M4.9519533,0.785105991 C4.9519533,0.785105991 2.18245407,2.93441475 0.647388018,4.76038095" id="Stroke-57" stroke="#BF4A40" stroke-width="0.5" stroke-linecap="round" stroke-linejoin="round" mask="url(#mask-34)"/>
                </g>
                <g id="Group-62">
                    <mask id="mask-36" fill="white">
                        <use xlink:href="#path-35"/>
                    </mask>
                    <g id="Clip-61"/>
                    <line x1="1.2071275" y1="5.25307281" x2="5.39706298" y2="1.24048909" id="Stroke-60" stroke="#BF4A40" stroke-width="0.5" stroke-linecap="round" stroke-linejoin="round" mask="url(#mask-36)"/>
                </g>
                <g id="Group-65">
                    <mask id="mask-38" fill="white">
                        <use xlink:href="#path-37"/>
                    </mask>
                    <g id="Clip-64"/>
                    <path d="M4.30510599,2.42706974 C4.45163748,2.79799447 4.84256836,4.13624332 4.91069739,5.33498986" id="Stroke-63" stroke="#BF4A40" stroke-width="0.5" stroke-linecap="round" stroke-linejoin="round" mask="url(#mask-38)"/>
                </g>
                <g id="Group-68">
                    <mask id="mask-40" fill="white">
                        <use xlink:href="#path-39"/>
                    </mask>
                    <g id="Clip-67"/>
                    <path d="M3.6788596,3.05807435 C3.87729892,3.71395146 4.10169217,4.37036928 4.00436498,5.71402519" id="Stroke-66" stroke="#BF4A40" stroke-width="0.5" stroke-linecap="round" stroke-linejoin="round" mask="url(#mask-40)"/>
                </g>
                <g id="Group-71">
                    <mask id="mask-42" fill="white">
                        <use xlink:href="#path-41"/>
                    </mask>
                    <g id="Clip-70"/>
                    <path d="M3.17248786,0.244669739 C3.23142488,0.425265745 3.30496098,0.664258065 3.37687496,0.934611367" id="Stroke-69" stroke="#BF4A40" stroke-width="0.5" stroke-linecap="round" stroke-linejoin="round" mask="url(#mask-42)"/>
                </g>
                <g id="Group-74">
                    <mask id="mask-44" fill="white">
                        <use xlink:href="#path-43"/>
                    </mask>
                    <g id="Clip-73"/>
                    <path d="M2.89683564,3.76191214 C3.10230415,4.50700584 3.17638095,5.35158955 3.17475883,5.83119631" id="Stroke-72" stroke="#BF4A40" stroke-width="0.5" stroke-linecap="round" stroke-linejoin="round" mask="url(#mask-44)"/>
                </g>
                <g id="Group-77">
                    <mask id="mask-46" fill="white">
                        <use xlink:href="#path-45"/>
                    </mask>
                    <g id="Clip-76"/>
                    <path d="M2.05987588,0.256565284 C2.20424455,0.737794163 2.33076989,1.20226114 2.44161475,1.64401843" id="Stroke-75" stroke="#BF4A40" stroke-width="0.5" stroke-linecap="round" stroke-linejoin="round" mask="url(#mask-46)"/>
                </g>
                <g id="Group-80">
                    <mask id="mask-48" fill="white">
                        <use xlink:href="#path-47"/>
                    </mask>
                    <g id="Clip-79"/>
                    <path d="M4.78033303,3.8548596 C5.0479828,3.67858925 5.3188768,3.4785278 5.58598587,3.25143103" id="Stroke-78" stroke="#BF4A40" stroke-width="0.5" stroke-linecap="round" stroke-linejoin="round" mask="url(#mask-48)"/>
                </g>
                <g id="Group-83">
                    <mask id="mask-50" fill="white">
                        <use xlink:href="#path-49"/>
                    </mask>
                    <g id="Clip-82"/>
                    <line x1="4.48781075" y1="2.89937696" x2="6.0142255" y2="3.31842458" id="Stroke-81" stroke="#BF4A40" stroke-width="0.5" stroke-linecap="round" stroke-linejoin="round" mask="url(#mask-50)"/>
                </g>
                <g id="Group-86">
                    <mask id="mask-52" fill="white">
                        <use xlink:href="#path-51"/>
                    </mask>
                    <g id="Clip-85"/>
                    <line x1="4.48148449" y1="2.15774378" x2="5.88191459" y2="2.48811551" id="Stroke-84" stroke="#BF4A40" stroke-width="0.5" stroke-linecap="round" stroke-linejoin="round" mask="url(#mask-52)"/>
                </g>
                <g id="Group-89">
                    <mask id="mask-54" fill="white">
                        <use xlink:href="#path-53"/>
                    </mask>
                    <g id="Clip-88"/>
                    <line x1="5.02165038" y1="1.75486329" x2="5.73430169" y2="1.85110906" id="Stroke-87" stroke="#BF4A40" stroke-width="0.5" stroke-linecap="round" stroke-linejoin="round" mask="url(#mask-54)"/>
                </g>
                <g id="Group-92">
                    <mask id="mask-56" fill="white">
                        <use xlink:href="#path-55"/>
                    </mask>
                    <g id="Clip-91"/>
                    <path d="M5.40706605e-05,2.75311582 C0.230395084,2.73689462 0.996576344,2.79799447 1.32532596,2.82773333" id="Stroke-90" stroke="#BF4A40" stroke-width="0.5" stroke-linecap="round" stroke-linejoin="round" mask="url(#mask-56)"/>
                </g>
                <g id="Group-95">
                    <mask id="mask-58" fill="white">
                        <use xlink:href="#path-57"/>
                    </mask>
                    <g id="Clip-94"/>
                    <path d="M0.088243318,2.09729278 C0.343456836,2.10540338 1.31618802,2.20921905 1.77849217,2.40873978" id="Stroke-93" stroke="#BF4A40" stroke-width="0.5" stroke-linecap="round" stroke-linejoin="round" mask="url(#mask-58)"/>
                </g>
                <g id="Group-98">
                    <mask id="mask-60" fill="white">
                        <use xlink:href="#path-59"/>
                    </mask>
                    <g id="Clip-97"/>
                    <path d="M0.60250937,1.29201843 C0.60250937,1.29201843 1.35138802,1.29309985 2.01050937,1.97817512" id="Stroke-96" stroke="#BF4A40" stroke-width="0.5" stroke-linecap="round" stroke-linejoin="round" mask="url(#mask-60)"/>
                </g>
            </g>
            <g id="Group-108" transform="translate(0.540707, 2.593986)">
                <line x1="0.984843011" y1="2.0416" x2="0.268406759" y2="1.73177512" id="Stroke-100" stroke="#576AE8" stroke-width="0.5" stroke-linecap="round" stroke-linejoin="round"/>
                <line x1="0.75882765" y1="1.84462058" x2="0.642035023" y2="1.42070661" id="Stroke-102" stroke="#576AE8" stroke-width="0.5" stroke-linecap="round" stroke-linejoin="round"/>
                <line x1="6.43413825" y1="3.39125776" x2="6.86994777" y2="3.66161106" id="Stroke-104" stroke="#5998A6" stroke-width="0.5" stroke-linecap="round" stroke-linejoin="round"/>
                <path d="M0.772561598,4.69203564 C1.41492104,6.02812166 3.00946482,6.90028141 4.65699785,6.02974378 C6.66464147,4.96779601 6.9447275,3.48896344 6.20882581,1.95984516 C5.82979048,1.17149493 5.43615607,0.727034101 4.74134808,0.483716129 C4.01571982,0.229584025 2.98242949,0.200926575 2.27734808,0.539949616 C-0.762504455,2.00202028 0.609268203,4.35247189 0.772561598,4.69203564" id="Fill-106" fill="#586AE8"/>
            </g>
            <g id="Group-154" transform="translate(0.540707, 2.593986)">
                <g id="Group-111">
                    <mask id="mask-62" fill="white">
                        <use xlink:href="#path-61"/>
                    </mask>
                    <g id="Clip-110"/>
                    <path d="M1.74891551,5.92473856 C1.83164363,4.80926083 2.13984639,1.92405038 3.34670353,0.151614132" id="Stroke-109" stroke="#7391FE" stroke-width="0.5" stroke-linecap="round" stroke-linejoin="round" mask="url(#mask-62)"/>
                </g>
                <g id="Group-114">
                    <mask id="mask-64" fill="white">
                        <use xlink:href="#path-63"/>
                    </mask>
                    <g id="Clip-113"/>
                    <path d="M3.89324977,0.195303226 C3.89324977,0.195303226 2.68909616,3.72773948 2.39387035,6.24959508" id="Stroke-112" stroke="#7391FE" stroke-width="0.5" stroke-linecap="round" stroke-linejoin="round" mask="url(#mask-64)"/>
                </g>
                <g id="Group-117">
                    <mask id="mask-66" fill="white">
                        <use xlink:href="#path-65"/>
                    </mask>
                    <g id="Clip-116"/>
                    <line x1="3.17984147" y1="6.36011551" x2="4.55485837" y2="0.339347465" id="Stroke-115" stroke="#7391FE" stroke-width="0.5" stroke-linecap="round" stroke-linejoin="round" mask="url(#mask-66)"/>
                </g>
                <g id="Group-120">
                    <mask id="mask-68" fill="white">
                        <use xlink:href="#path-67"/>
                    </mask>
                    <g id="Clip-119"/>
                    <path d="M4.27920614,2.03392197 C4.62633978,2.27778065 5.75803871,3.23861628 6.52043502,4.26433671" id="Stroke-118" stroke="#7391FE" stroke-width="0.5" stroke-linecap="round" stroke-linejoin="round" mask="url(#mask-68)"/>
                </g>
                <g id="Group-123">
                    <mask id="mask-70" fill="white">
                        <use xlink:href="#path-69"/>
                    </mask>
                    <g id="Clip-122"/>
                    <path d="M4.09228387,2.96139601 C4.65245591,3.42856651 5.23587834,3.88059724 5.93555269,5.13179232" id="Stroke-121" stroke="#7391FE" stroke-width="0.5" stroke-linecap="round" stroke-linejoin="round" mask="url(#mask-70)"/>
                </g>
                <g id="Group-126">
                    <mask id="mask-72" fill="white">
                        <use xlink:href="#path-71"/>
                    </mask>
                    <g id="Clip-125"/>
                    <path d="M1.80801475,0.64755023 C1.96590108,0.773534869 2.45253702,1.03902181 2.67530814,1.23746114" id="Stroke-124" stroke="#7391FE" stroke-width="0.5" stroke-linecap="round" stroke-linejoin="round" mask="url(#mask-72)"/>
                </g>
                <g id="Group-129">
                    <mask id="mask-74" fill="white">
                        <use xlink:href="#path-73"/>
                    </mask>
                    <g id="Clip-128"/>
                    <path d="M3.80873733,4.04518833 C4.42784639,4.58697634 4.98855914,5.29476129 5.26702304,5.72246022" id="Stroke-127" stroke="#7391FE" stroke-width="0.5" stroke-linecap="round" stroke-linejoin="round" mask="url(#mask-74)"/>
                </g>
                <g id="Group-132">
                    <mask id="mask-76" fill="white">
                        <use xlink:href="#path-75"/>
                    </mask>
                    <g id="Clip-131"/>
                    <path d="M1.01225684,1.41876006 C1.42265315,1.76210876 1.9017192,2.12384147 2.25912627,2.45205038" id="Stroke-130" stroke="#7391FE" stroke-width="0.5" stroke-linecap="round" stroke-linejoin="round" mask="url(#mask-76)"/>
                </g>
                <g id="Group-135">
                    <mask id="mask-78" fill="white">
                        <use xlink:href="#path-77"/>
                    </mask>
                    <g id="Clip-134"/>
                    <path d="M5.53753856,3.02503717 C5.67271521,2.71142734 5.79653702,2.37510783 5.90089339,2.01661935" id="Stroke-133" stroke="#7391FE" stroke-width="0.5" stroke-linecap="round" stroke-linejoin="round" mask="url(#mask-78)"/>
                </g>
                <g id="Group-138">
                    <mask id="mask-80" fill="white">
                        <use xlink:href="#path-79"/>
                    </mask>
                    <g id="Clip-137"/>
                    <line x1="4.71804363" y1="2.34677481" x2="6.320698" y2="1.82553364" id="Stroke-136" stroke="#7391FE" stroke-width="0.5" stroke-linecap="round" stroke-linejoin="round" mask="url(#mask-80)"/>
                </g>
                <g id="Group-141">
                    <mask id="mask-82" fill="white">
                        <use xlink:href="#path-81"/>
                    </mask>
                    <g id="Clip-140"/>
                    <line x1="4.2781788" y1="1.69122212" x2="5.71699908" y2="1.16511459" id="Stroke-139" stroke="#7391FE" stroke-width="0.5" stroke-linecap="round" stroke-linejoin="round" mask="url(#mask-82)"/>
                </g>
                <g id="Group-144">
                    <mask id="mask-84" fill="white">
                        <use xlink:href="#path-83"/>
                    </mask>
                    <g id="Clip-143"/>
                    <line x1="4.52263226" y1="1.01669063" x2="5.21257389" y2="0.684696774" id="Stroke-142" stroke="#7391FE" stroke-width="0.5" stroke-linecap="round" stroke-linejoin="round" mask="url(#mask-84)"/>
                </g>
                <g id="Group-147">
                    <mask id="mask-86" fill="white">
                        <use xlink:href="#path-85"/>
                    </mask>
                    <g id="Clip-146"/>
                    <path d="M0.642683871,4.84440676 C0.837878955,4.69571244 1.55485591,4.30045591 1.8646808,4.13445899" id="Stroke-145" stroke="#7391FE" stroke-width="0.5" stroke-linecap="round" stroke-linejoin="round" mask="url(#mask-86)"/>
                </g>
                <g id="Group-150">
                    <mask id="mask-88" fill="white">
                        <use xlink:href="#path-87"/>
                    </mask>
                    <g id="Clip-149"/>
                    <path d="M0.337454992,4.20940092 C0.568336713,4.06719508 1.49456713,3.58975115 2.02229677,3.49674962" id="Stroke-148" stroke="#7391FE" stroke-width="0.5" stroke-linecap="round" stroke-linejoin="round" mask="url(#mask-88)"/>
                </g>
                <g id="Group-153">
                    <mask id="mask-90" fill="white">
                        <use xlink:href="#path-89"/>
                    </mask>
                    <g id="Clip-152"/>
                    <path d="M0.323180338,3.19271029 C0.323180338,3.19271029 1.29483011,2.84773948 2.15509432,2.9726427" id="Stroke-151" stroke="#7391FE" stroke-width="0.5" stroke-linecap="round" stroke-linejoin="round" mask="url(#mask-90)"/>
                </g>
            </g>
            <path d="M5.80205223,7.65748694 C5.60415361,9.12658679 6.45576651,10.7319447 8.31039017,10.9109186 C10.5710845,11.1288233 11.6184332,10.0474101 11.8449892,8.3658126 C11.9617819,7.49905991 11.8774316,6.91077112 11.430808,6.32572657 C10.9652596,5.7141874 10.1179724,5.12211367 9.34259908,5.0177573 C5.99941014,4.56680799 5.85287865,7.28385868 5.80205223,7.65748694" id="Fill-155" fill="#7391FE"/>
            <g id="Group-202" transform="translate(5.407066, 4.756812)">
                <g id="Group-159">
                    <mask id="mask-92" fill="white">
                        <use xlink:href="#path-91"/>
                    </mask>
                    <g id="Clip-158"/>
                    <path d="M0.532325653,4.46710169 C1.2152381,3.58088356 3.05904762,1.3407361 5.04235945,0.524269124" id="Stroke-157" stroke="#586AE8" stroke-width="0.5" stroke-linecap="round" stroke-linejoin="round" mask="url(#mask-92)"/>
                </g>
                <g id="Group-162">
                    <mask id="mask-94" fill="white">
                        <use xlink:href="#path-93"/>
                    </mask>
                    <g id="Clip-161"/>
                    <path d="M5.47416774,0.861453763 C5.47416774,0.861453763 2.52623533,3.14918341 0.891679263,5.09302366" id="Stroke-160" stroke="#586AE8" stroke-width="0.5" stroke-linecap="round" stroke-linejoin="round" mask="url(#mask-94)"/>
                </g>
                <g id="Group-165">
                    <mask id="mask-96" fill="white">
                        <use xlink:href="#path-95"/>
                    </mask>
                    <g id="Clip-164"/>
                    <line x1="1.48802458" y1="5.61767127" x2="5.94777266" y2="1.34608909" id="Stroke-163" stroke="#586AE8" stroke-width="0.5" stroke-linecap="round" stroke-linejoin="round" mask="url(#mask-96)"/>
                </g>
                <g id="Group-168">
                    <mask id="mask-98" fill="white">
                        <use xlink:href="#path-97"/>
                    </mask>
                    <g id="Clip-167"/>
                    <path d="M4.78563195,2.60950415 C4.94135545,3.00367926 5.35824025,4.42898187 5.43015422,5.70504946" id="Stroke-166" stroke="#586AE8" stroke-width="0.5" stroke-linecap="round" stroke-linejoin="round" mask="url(#mask-98)"/>
                </g>
                <g id="Group-171">
                    <mask id="mask-100" fill="white">
                        <use xlink:href="#path-99"/>
                    </mask>
                    <g id="Clip-170"/>
                    <path d="M4.11921106,3.28116989 C4.33008664,3.97976283 4.56907896,4.67781505 4.46526329,6.10798402" id="Stroke-169" stroke="#586AE8" stroke-width="0.5" stroke-linecap="round" stroke-linejoin="round" mask="url(#mask-100)"/>
                </g>
                <g id="Group-174">
                    <mask id="mask-102" fill="white">
                        <use xlink:href="#path-101"/>
                    </mask>
                    <g id="Clip-173"/>
                    <path d="M3.47874409,-0.0129769585 C3.53443687,0.144368664 3.73449831,0.661824885 3.86372719,1.14792012" id="Stroke-172" stroke="#586AE8" stroke-width="0.5" stroke-linecap="round" stroke-linejoin="round" mask="url(#mask-102)"/>
                </g>
                <g id="Group-177">
                    <mask id="mask-104" fill="white">
                        <use xlink:href="#path-103"/>
                    </mask>
                    <g id="Clip-176"/>
                    <path d="M3.28652289,4.03042704 C3.50496836,4.82364363 3.58445223,5.72283871 3.58174869,6.23326575" id="Stroke-175" stroke="#586AE8" stroke-width="0.5" stroke-linecap="round" stroke-linejoin="round" mask="url(#mask-104)"/>
                </g>
                <g id="Group-180">
                    <mask id="mask-106" fill="white">
                        <use xlink:href="#path-105"/>
                    </mask>
                    <g id="Clip-179"/>
                    <path d="M2.39570876,0.29879447 C2.54926943,0.811384332 2.73743533,1.4310341 2.85530937,1.90144885" id="Stroke-178" stroke="#586AE8" stroke-width="0.5" stroke-linecap="round" stroke-linejoin="round" mask="url(#mask-106)"/>
                </g>
                <g id="Group-183">
                    <mask id="mask-108" fill="white">
                        <use xlink:href="#path-107"/>
                    </mask>
                    <g id="Clip-182"/>
                    <path d="M5.29146298,4.12943041 C5.57641536,3.94180522 5.86515269,3.72876682 6.14956436,3.48707097" id="Stroke-181" stroke="#586AE8" stroke-width="0.5" stroke-linecap="round" stroke-linejoin="round" mask="url(#mask-108)"/>
                </g>
                <g id="Group-186">
                    <mask id="mask-110" fill="white">
                        <use xlink:href="#path-109"/>
                    </mask>
                    <g id="Clip-185"/>
                    <line x1="4.97990783" y1="3.11219908" x2="6.60527189" y2="3.55828203" id="Stroke-184" stroke="#586AE8" stroke-width="0.5" stroke-linecap="round" stroke-linejoin="round" mask="url(#mask-110)"/>
                </g>
                <g id="Group-189">
                    <mask id="mask-112" fill="white">
                        <use xlink:href="#path-111"/>
                    </mask>
                    <g id="Clip-188"/>
                    <line x1="4.97304086" y1="2.32276743" x2="6.46430968" y2="2.67476743" id="Stroke-187" stroke="#586AE8" stroke-width="0.5" stroke-linecap="round" stroke-linejoin="round" mask="url(#mask-112)"/>
                </g>
                <g id="Group-192">
                    <mask id="mask-114" fill="white">
                        <use xlink:href="#path-113"/>
                    </mask>
                    <g id="Clip-191"/>
                    <line x1="5.43826482" y1="1.85046022" x2="6.30663963" y2="1.996451" id="Stroke-190" stroke="#586AE8" stroke-width="0.5" stroke-linecap="round" stroke-linejoin="round" mask="url(#mask-114)"/>
                </g>
                <g id="Group-195">
                    <mask id="mask-116" fill="white">
                        <use xlink:href="#path-115"/>
                    </mask>
                    <g id="Clip-194"/>
                    <path d="M0.202819048,2.95642151 C0.44775914,2.9396596 1.26368541,3.00400369 1.61352258,3.03536467" id="Stroke-193" stroke="#586AE8" stroke-width="0.5" stroke-linecap="round" stroke-linejoin="round" mask="url(#mask-116)"/>
                </g>
                <g id="Group-198">
                    <mask id="mask-118" fill="white">
                        <use xlink:href="#path-117"/>
                    </mask>
                    <g id="Clip-197"/>
                    <path d="M0.296793856,2.25836928 C0.568228571,2.26647988 1.60422243,2.37732473 2.09572473,2.58982243" id="Stroke-196" stroke="#586AE8" stroke-width="0.5" stroke-linecap="round" stroke-linejoin="round" mask="url(#mask-118)"/>
                </g>
                <g id="Group-201">
                    <mask id="mask-120" fill="white">
                        <use xlink:href="#path-119"/>
                    </mask>
                    <g id="Clip-200"/>
                    <path d="M0.844367435,1.40107896 C0.844367435,1.40107896 1.84575607,1.60979171 2.4951447,2.18672565" id="Stroke-199" stroke="#586AE8" stroke-width="0.5" stroke-linecap="round" stroke-linejoin="round" mask="url(#mask-120)"/>
                </g>
            </g>
            <g id="Group-211" transform="translate(0.000000, 4.756812)">
                <path d="M5.86861321,2.78847803 C5.83833364,1.28369155 6.92299109,0.612133948 7.56967619,0.376926575" id="Stroke-203" stroke="#173036" stroke-width="0.5" stroke-linecap="round" stroke-linejoin="round"/>
                <g id="Group-207" transform="translate(0.000000, 2.162826)">
                    <mask id="mask-122" fill="white">
                        <use xlink:href="#path-121"/>
                    </mask>
                    <g id="Clip-206"/>
                    <path d="M14.0452326,0.198222347 C14.4069653,0.197682335 14.6794814,0.512914286 14.6475797,0.873024885 C14.3166673,4.61795883 11.1762433,7.55940276 7.34317419,7.56970318 C3.51064578,7.57994962 0.354541321,4.656349 0.00254132104,0.913037174 C-0.0309824885,0.552926575 0.239911521,0.236072504 0.602184946,0.234991091 L14.0452326,0.198222347 Z" id="Fill-205" fill="#F3F4F0" mask="url(#mask-122)"/>
                </g>
                <g id="Group-210" transform="translate(0.000000, 2.162826)">
                    <mask id="mask-124" fill="white">
                        <use xlink:href="#path-123"/>
                    </mask>
                    <g id="Clip-209"/>
                    <path d="M6.88454685,5.9207914 C4.03502304,4.92643195 1.90842396,2.80523994 0.805382488,0.234720737 L0.602076805,0.234720737 C0.240344086,0.235802151 -0.0310906298,0.552656221 0.00243317972,0.91276682 C0.35443318,4.65607865 3.51053763,7.58021997 7.34360676,7.56997353 C8.7710722,7.56562089 10.1017512,7.15414316 11.2275023,6.44743963 C9.80111828,6.57883134 8.32552995,6.42364854 6.88454685,5.9207914" id="Fill-208" fill="#D3D6CB" mask="url(#mask-124)"/>
                </g>
            </g>
        </g>
    </g>
</svg>