<?xml version="1.0" encoding="UTF-8"?>
<svg width="16px" height="16px" viewBox="0 0 16 16" version="1.1" xmlns="http://www.w3.org/2000/svg" xmlns:xlink="http://www.w3.org/1999/xlink">
    <!-- Generator: Sketch 61.2 (89653) - https://sketch.com -->
    <title>icons/notebook/tools</title>
    <desc>Created with Sketch.</desc>
    <defs>
        <polygon id="path-1" points="0.462034671 0.306557994 4.84061611 0.306557994 4.84061611 4.68503659 0.462034671 4.68503659"/>
        <polygon id="path-3" points="0.418374086 0.369100104 8.80876349 0.369100104 8.80876349 11.7701149 0.418374086 11.7701149"/>
    </defs>
    <g id="icons/notebook/tools" stroke="none" stroke-width="1" fill="none" fill-rule="evenodd">
        <g id="Group-37" transform="translate(1.000000, 0.000000)">
            <path d="M1.13517409,13.9866416 C5.14557325,8.75268548 8.9703256,2.9184535 8.9703256,2.9184535 L10.5293308,4.01307419 C10.5293308,4.01307419 5.93417095,10.240535 2.17361923,14.7345789 C1.34061609,15.7312936 0.456252456,14.8731452 1.13517409,13.9866416" id="Fill-1" fill="#DDDFD4"/>
            <path d="M2.89480627,13.8648744 C3.25967983,13.4208201 3.62883344,12.9649956 3.99852205,12.5054261 L3.99103197,12.4037751 L2.23086479,12.5369914 C1.86920125,13.0217062 1.50272268,13.5069559 1.13517409,13.9868556 C1.10360878,14.027516 1.07953354,14.0681764 1.0549233,14.1088368 L2.89480627,13.8648744 Z" id="Fill-3" fill="#ABB398"/>
            <path d="M0.867136468,11.8596748 C0.940432184,11.8462997 6.94800585,10.7302788 8.7349233,10.448331 C9.31433396,10.3563101 10.1323569,10.3852004 10.854079,10.4108807 C11.368219,10.4290708 11.8534688,10.446191 12.087266,10.4098107 C12.8903089,10.2830144 12.7544176,9.84377513 12.3135732,9.91332581 C11.0648711,10.1096727 10.8080685,8.74059436 11.9754499,8.55708757 C13.3835837,8.33452539 14.2529672,9.0423373 14.335358,9.86678036 C14.4166788,10.6815933 13.7291971,11.5894972 12.1086662,11.8452297 L1.2084698,13.6835076 C-0.265469592,13.9173049 -0.405105956,12.0592318 0.867136468,11.8596748" id="Fill-5" fill="#5998A6"/>
            <line x1="3.71561129" y1="13.3205066" x2="0.946959248" y2="13.6179695" id="Stroke-7" stroke="#477A85" stroke-width="0.588505747" stroke-linecap="round" stroke-linejoin="round"/>
            <path d="M6.79766938,12.7405609 L8.34329948,12.4805484 L7.49157116,10.6577856 C7.19089822,10.7102161 6.86561505,10.7674617 6.52428171,10.8284522 L6.79766938,12.7405609 Z" id="Fill-9" fill="#477A85"/>
            <path d="M8.9700581,2.918186 C8.9700581,2.918186 8.55917409,3.54360711 7.8743674,4.55851202 C7.93535799,4.61415256 7.99153354,4.67407315 8.06001421,4.72329363 C8.55756907,5.08388715 9.15570491,5.2015883 9.71692539,5.10421735 C10.2267854,4.4236907 10.5290633,4.01334169 10.5290633,4.01334169 L8.9700581,2.918186 Z" id="Fill-11" fill="#ABB398"/>
            <path d="M5.50504326,7.96467628 L4.36869216,9.60339728 C4.36869216,9.60339728 5.33437659,9.677228 5.77361588,10.2512886 L6.49747795,9.33321964 L5.50504326,7.96467628 Z" id="Fill-13" fill="#ABB398"/>
            <g id="Group-17" transform="translate(7.490073, 0.228554)">
                <mask id="mask-2" fill="white">
                    <use xlink:href="#path-1"/>
                </mask>
                <g id="Clip-16"/>
                <path d="M4.42513521,3.7789559 C3.71625329,4.75855047 2.34770993,4.97790261 1.36811536,4.26955569 C0.388520794,3.56067377 0.169168652,2.19213041 0.877515569,1.21253584 C1.58639749,0.232941275 2.95494086,0.0135891327 3.93453542,0.72193605 C4.91412999,1.43028297 5.13348213,2.79936134 4.42513521,3.7789559" id="Fill-15" fill="#EF6E60" mask="url(#mask-2)"/>
            </g>
            <path d="M8.71090157,1.07338098 C7.27494754,2.31887315 7.99078454,4.67610617 9.89593814,4.89010825 C8.82111264,4.03623992 8.36956823,2.43924932 8.71090157,1.07338098" id="Fill-18" fill="#BF4A40"/>
            <path d="M11.6001438,1.96261317 C11.6001438,1.96261317 12.1105388,2.74853584 11.6060288,3.47988798" id="Stroke-20" stroke="#FEF7F6" stroke-width="0.588505747" stroke-linecap="round" stroke-linejoin="round"/>
            <g id="Group-24" transform="translate(2.140021, 3.438586)">
                <mask id="mask-4" fill="white">
                    <use xlink:href="#path-3"/>
                </mask>
                <g id="Clip-23"/>
                <path d="M8.59699896,10.5893049 C4.84072727,5.16970199 2.02820481,0.369100104 2.02820481,0.369100104 L0.418374086,1.38882006 C0.418374086,1.38882006 3.98204389,6.61849613 7.52377847,11.2874867 C8.30863114,12.3216518 9.23258516,11.5073739 8.59699896,10.5893049" id="Fill-22" fill="#DDDFD4" mask="url(#mask-4)"/>
            </g>
            <line x1="5.94759958" y1="6.52893626" x2="7.03419519" y2="8.38058934" id="Stroke-25" stroke="#FEF7F6" stroke-width="0.588505747" stroke-linecap="round" stroke-linejoin="round"/>
            <line x1="5.07559457" y1="8.34035695" x2="6.58484431" y2="10.3439515" id="Stroke-27" stroke="#939D7B" stroke-width="0.588505747" stroke-linecap="round" stroke-linejoin="round"/>
            <path d="M4.1680652,3.80795319 L2.55823448,4.82713814 C2.55823448,4.82713814 3.00442884,5.49642968 3.69458558,6.51561463 C3.70314566,6.51186959 3.71170575,6.51026458 3.72026583,6.50651954 C4.3729722,6.19782153 4.76566604,5.57133041 4.81809655,4.89936385 C4.40614253,4.21348715 4.1680652,3.80795319 4.1680652,3.80795319" id="Fill-29" fill="#ABB398"/>
            <path d="M4.91835653,2.62559164 C5.48064702,3.81490825 4.97185705,5.23481212 3.78200543,5.79656761 C2.59268882,6.3588581 1.17278495,5.84953312 0.611029467,4.66075152 C0.048738976,3.4708999 0.55806395,2.05153103 1.74738056,1.48924054 C2.93669718,0.927485057 4.35660104,1.43574002 4.91835653,2.62559164" id="Fill-31" fill="#EF6E60"/>
            <path d="M0.440790805,4.14024493 C0.874680042,6.16256468 3.49727565,6.71629509 4.6999674,5.01337346 C2.88041463,5.57833898 1.21654838,5.14926479 0.440790805,4.14024493" id="Fill-33" fill="#BF4A40"/>
            <path d="M2.80444389,1.85288359 C2.80444389,1.85288359 3.82095381,1.77851787 4.25323804,2.64362132" id="Stroke-35" stroke="#FEF7F6" stroke-width="0.588505747" stroke-linecap="round" stroke-linejoin="round"/>
        </g>
    </g>
</svg>