<?xml version="1.0" encoding="UTF-8"?>
<svg width="16px" height="16px" viewBox="0 0 16 16" version="1.1" xmlns="http://www.w3.org/2000/svg" xmlns:xlink="http://www.w3.org/1999/xlink">
    <!-- Generator: Sketch 61.2 (89653) - https://sketch.com -->
    <title>icons/ui/photo</title>
    <desc>Created with Sketch.</desc>
    <defs>
        <polygon id="path-1" points="0.000114285714 0.144457143 15.1908571 0.144457143 15.1908571 12.5714286 0.000114285714 12.5714286"></polygon>
        <polygon id="path-3" points="0 0.649184072 15.1908571 0.649184072 15.1908571 9.14274286 0 9.14274286"></polygon>
    </defs>
    <g id="icons/ui/photo" stroke="none" stroke-width="1" fill="none" fill-rule="evenodd">
        <g id="Group-27" transform="translate(0.500000, 1.500000)">
            <g id="Group-3" transform="translate(0.000000, 0.109625)">
                <mask id="mask-2" fill="white">
                    <use xlink:href="#path-1"></use>
                </mask>
                <g id="Clip-2"></g>
                <path d="M14.5978286,0.144457143 C14.9258286,0.144457143 15.1921143,0.4096 15.1921143,0.7376 L15.1921143,11.9776 C15.1921143,12.3056 14.9258286,12.5718857 14.5978286,12.5718857 L0.593257143,12.5718857 C0.265257143,12.5718857 0.000114285714,12.3056 0.000114285714,11.9776 L0.000114285714,0.7376 C0.000114285714,0.4096 0.265257143,0.144457143 0.593257143,0.144457143 L14.5978286,0.144457143 Z" id="Fill-1" fill="#7391FE" mask="url(#mask-2)"></path>
            </g>
            <path d="M6.77862857,5.78093968 C8.59462857,5.81636825 10.0380571,7.31808254 10.0003429,9.13408254 C9.96491429,10.9489397 8.46434286,12.3923683 6.64834286,12.3557968 C4.83234286,12.3203683 3.38891429,10.8197968 3.42548571,9.00379683 C3.46205714,7.18779683 4.96262857,5.74436825 6.77862857,5.78093968" id="Fill-4" fill="#FFDA84"></path>
            <line x1="10.4348571" y1="9.31328254" x2="10.4348571" y2="9.31328254" id="Stroke-6" stroke="#FFDA84" stroke-width="0.514285714" stroke-linecap="round" stroke-linejoin="round"></line>
            <path d="M9.52868571,6.37305397 C7.76068571,4.39705397 3.98011429,4.84505397 3.14925714,7.74791111" id="Stroke-8" stroke="#FFDA84" stroke-width="0.514285714" stroke-linecap="round" stroke-linejoin="round" stroke-dasharray="0,2.836799812316895"></path>
            <line x1="2.99622857" y1="9.31328254" x2="2.99622857" y2="9.31328254" id="Stroke-10" stroke="#FFDA84" stroke-width="0.514285714" stroke-linecap="round" stroke-linejoin="round"></line>
            <line x1="6.71611429" y1="9.31328254" x2="8.57554286" y2="9.31328254" id="Stroke-12" stroke="#FFDA84" stroke-width="0.514285714" stroke-linecap="round" stroke-linejoin="round" stroke-dasharray="0,3.347999954223633"></line>
            <path d="M9.86685714,8.13476825 C9.67714286,7.49476825 9.29771429,6.93705397 8.79257143,6.52448254 L5.96514286,8.93819683 L3.75371429,7.63991111 C3.55485714,8.0536254 3.43485714,8.51419683 3.42571429,9.00333968 C3.40514286,10.0639111 3.89085714,11.0147683 4.65771429,11.6319111 L9.86685714,8.13476825 Z" id="Fill-14" fill="#FFCC4D"></path>
            <path d="M8.32102857,6.72173968 C8.58388571,6.92973968 9.67988571,6.96745397 10.0193143,6.75945397 C10.3598857,6.55259683 10.4170286,5.68288254 10.0764571,5.55145397 C9.73702857,5.41888254 8.64102857,5.39945397 8.33931429,5.64516825 C8.02388571,5.90231111 8.05702857,6.51373968 8.32102857,6.72173968" id="Fill-16" fill="#FFFFFF"></path>
            <g id="Group-20" transform="translate(0.000000, 3.538197)">
                <mask id="mask-4" fill="white">
                    <use xlink:href="#path-3"></use>
                </mask>
                <g id="Clip-19"></g>
                <path d="M15.1915429,8.5496 L15.1915429,2.67874286 L13.9858286,1.15302857 C13.5332571,0.580457143 12.7024,0.481028571 12.1286857,0.931314286 L5.75154286,5.93017143 L3.5584,4.41245714 C3.04525714,4.05702857 2.35497143,4.10845714 1.89897143,4.53474286 L-0.000457142857,6.31302857 L-0.000457142857,8.5496 C-0.000457142857,8.8776 0.264685714,9.14274286 0.593828571,9.14274286 L14.5972571,9.14274286 C14.9264,9.14274286 15.1915429,8.8776 15.1915429,8.5496" id="Fill-18" fill="#586AE8" mask="url(#mask-4)"></path>
            </g>
            <path d="M11.1949714,5.20219683 C12.3024,5.2696254 13.8224,5.24333968 14.3126857,5.10505397 L13.9858286,4.69133968 C13.5332571,4.11876825 12.7024,4.01933968 12.1286857,4.4696254 L11.1949714,5.20219683 Z" id="Fill-21" fill="#00385E"></path>
            <path d="M9.85005714,4.55431111 C10.1929143,4.82288254 13.8592,4.8720254 14.2980571,4.60345397 C14.7369143,4.33488254 14.8112,3.21145397 14.3712,3.0400254 C13.9312,2.86859683 10.2649143,2.84459683 9.87405714,3.16231111 C9.46605714,3.49373968 9.50834286,4.28573968 9.85005714,4.55431111" id="Fill-23" fill="#FFFFFF"></path>
            <path d="M1.96057143,3.69716825 C2.41542857,4.05488254 4.40285714,4.02288254 4.988,3.66516825 C5.57428571,3.30631111 5.57428571,1.90745397 4.988,1.67888254 C4.40285714,1.45145397 2.51371429,1.41831111 1.99257143,1.84116825 C1.44971429,2.28459683 1.50571429,3.33945397 1.96057143,3.69716825" id="Fill-25" fill="#FFFFFF"></path>
        </g>
    </g>
</svg>