<?xml version="1.0" encoding="UTF-8"?>
<svg width="16px" height="16px" viewBox="0 0 16 16" version="1.1" xmlns="http://www.w3.org/2000/svg" xmlns:xlink="http://www.w3.org/1999/xlink">
    <!-- Generator: Sketch 61.2 (89653) - https://sketch.com -->
    <title>icons/ui/comment</title>
    <desc>Created with Sketch.</desc>
    <defs>
        <polygon id="path-1" points="0.000109676347 0.0306086957 15.1735522 0.0306086957 15.1735522 13.6771529 0.000109676347 13.6771529"/>
    </defs>
    <g id="icons/ui/comment" stroke="none" stroke-width="1" fill="none" fill-rule="evenodd">
        <g id="Group-20" transform="translate(0.500000, 0.000000)">
            <path d="M0.189773913,10.3841391 C0.350469565,13.0693565 1.47881739,15.9695304 2.01586087,15.9695304 C3.02733913,15.9695304 3.97551304,12.3827478 3.97551304,12.3827478 L0.189773913,10.3841391 Z" id="Fill-1" fill="#7391FE"/>
            <path d="M3.18706087,14.6076522 C3.35958261,14.2326957 3.51262609,13.834087 3.63645217,13.4765217 L1.65106087,13.3506087 C1.89662609,13.832 2.36827826,14.3252174 3.18706087,14.6076522" id="Fill-3" fill="#586AE8"/>
            <g id="Group-7" transform="translate(0.000000, 0.665183)">
                <mask id="mask-2" fill="white">
                    <use xlink:href="#path-1"/>
                </mask>
                <g id="Clip-6"/>
                <path d="M0.782886957,1.53245217 C-0.0268521739,2.9341913 -0.471373913,10.4660174 0.782886957,12.3602783 C1.88758261,14.0291478 13.5515826,14.2009739 14.4232348,12.3602783 C15.4952348,10.0952348 15.3714087,2.3394087 14.3515826,1.1901913 C12.8642783,-0.48493913 1.85488696,-0.323547826 0.782886957,1.53245217" id="Fill-5" fill="#7391FE" mask="url(#mask-2)"/>
            </g>
            <path d="M1.98733913,5.92932174 C3.45864348,4.18253913 3.71742609,5.85836522 4.81725217,5.85836522 C5.68612174,5.85836522 6.1709913,4.08862609 7.21655652,4.08862609 C8.36577391,4.08862609 8.31568696,6.48932174 9.29446957,6.2994087 C10.1494261,6.13314783 10.571687,4.61245217 11.4280348,4.5888 C12.1111652,4.57001739 12.3692522,5.74636522 13.5789913,5.74636522" id="Stroke-8" stroke="#FFFFFF" stroke-width="0.695652174" stroke-linecap="round" stroke-linejoin="round"/>
            <path d="M2.94998261,10.777113 C3.62963478,11.3976348 4.32528696,11.6334609 4.96667826,11.6334609 C8.24737391,11.6334609 8.12006957,7.91172174 6.67311304,7.91172174 C5.57885217,7.91172174 5.20250435,9.80111304 6.17293913,9.80111304 C7.39798261,9.80111304 8.63067826,8.13572174 10.1179826,8.13572174 C11.7409391,8.13572174 12.561113,9.65363478 11.4765913,11.129113" id="Stroke-10" stroke="#586AE8" stroke-width="0.695652174" stroke-linecap="round" stroke-linejoin="round"/>
            <path d="M3.71763478,8.18573913 C3.84215652,8.66713043 3.55346087,9.15826087 3.07137391,9.28347826 C2.59067826,9.408 2.09885217,9.11930435 1.97433043,8.63791304 C1.84911304,8.15652174 2.1378087,7.66469565 2.61989565,7.54017391 C3.10128696,7.41565217 3.59241739,7.70434783 3.71763478,8.18573913" id="Fill-12" fill="#FFFFFF"/>
            <path d="M6.62253913,2.24584348 C6.74775652,2.72723478 6.45906087,3.21836522 5.97697391,3.34358261 C5.49558261,3.46810435 5.00445217,3.1794087 4.87923478,2.69801739 C4.75471304,2.21662609 5.0434087,1.7248 5.52549565,1.60027826 C6.0061913,1.47575652 6.49801739,1.76445217 6.62253913,2.24584348" id="Fill-14" fill="#586AE8"/>
            <path d="M13.9187478,7.47547826 C14.0432696,7.95686957 13.7545739,8.448 13.272487,8.57321739 C12.7917913,8.69773913 12.2999652,8.40904348 12.1754435,7.92765217 C12.0502261,7.44626087 12.3389217,6.95443478 12.8210087,6.82991304 C13.3024,6.7053913 13.7935304,6.99408696 13.9187478,7.47547826" id="Fill-16" fill="#FFFFFF"/>
            <path d="M10.3032348,10.3810783 C10.4277565,10.8624696 10.1390609,11.3536 9.65697391,11.4788174 C9.17627826,11.6033391 8.68445217,11.3139478 8.55993043,10.8325565 C8.43471304,10.3518609 8.7234087,9.86003478 9.20549565,9.73551304 C9.68688696,9.61029565 10.1780174,9.89968696 10.3032348,10.3810783" id="Fill-18" fill="#586AE8"/>
        </g>
    </g>
</svg>