<?xml version="1.0" encoding="UTF-8"?>
<svg width="16px" height="16px" viewBox="0 0 16 16" version="1.1" xmlns="http://www.w3.org/2000/svg" xmlns:xlink="http://www.w3.org/1999/xlink">
    <!-- Generator: Sketch 61.2 (89653) - https://sketch.com -->
    <title>icons/notebook/favorites</title>
    <desc>Created with Sketch.</desc>
    <defs>
        <path d="M7.77107692,2.07630769 C5.44246154,-1.07323077 0.276923077,0.409846154 0.276923077,4.55507692 L0.276923077,4.55507692 C0.276923077,7.65292308 3.09046154,11.5113846 7.20861538,13.5790769 L7.20861538,13.5790769 C7.6,13.7747692 8.07138462,13.7723077 8.46153846,13.5716923 L8.46153846,13.5716923 C12.56,11.472 15.2910769,7.664 15.2910769,4.59569231 L15.2910769,4.59569231 C15.2910769,1.96676923 13.2196923,0.374153846 11.1015385,0.374153846 L11.1015385,0.374153846 C9.87692308,0.374153846 8.63753846,0.905846154 7.77107692,2.07630769" id="path-1"/>
        <path d="M7.77107692,2.07630769 C5.44246154,-1.07323077 0.276923077,0.409846154 0.276923077,4.55507692 L0.276923077,4.55507692 C0.276923077,7.65292308 3.09046154,11.5113846 7.20861538,13.5790769 L7.20861538,13.5790769 C7.6,13.7747692 8.07138462,13.7723077 8.46153846,13.5716923 L8.46153846,13.5716923 C12.56,11.472 15.2910769,7.664 15.2910769,4.59569231 L15.2910769,4.59569231 C15.2910769,1.96676923 13.2196923,0.374153846 11.1015385,0.374153846 L11.1015385,0.374153846 C9.87692308,0.374153846 8.63753846,0.905846154 7.77107692,2.07630769" id="path-3"/>
        <path d="M7.77107692,2.07630769 C5.44246154,-1.07323077 0.276923077,0.409846154 0.276923077,4.55507692 L0.276923077,4.55507692 C0.276923077,7.65292308 3.09046154,11.5113846 7.20861538,13.5790769 L7.20861538,13.5790769 C7.6,13.7747692 8.07138462,13.7723077 8.46153846,13.5716923 L8.46153846,13.5716923 C12.56,11.472 15.2910769,7.664 15.2910769,4.59569231 L15.2910769,4.59569231 C15.2910769,1.96676923 13.2196923,0.374153846 11.1015385,0.374153846 L11.1015385,0.374153846 C9.87692308,0.374153846 8.63753846,0.905846154 7.77107692,2.07630769" id="path-5"/>
        <path d="M7.77107692,2.07630769 C5.44246154,-1.07323077 0.276923077,0.409846154 0.276923077,4.55507692 L0.276923077,4.55507692 C0.276923077,7.65292308 3.09046154,11.5113846 7.20861538,13.5790769 L7.20861538,13.5790769 C7.6,13.7747692 8.07138462,13.7723077 8.46153846,13.5716923 L8.46153846,13.5716923 C12.56,11.472 15.2910769,7.664 15.2910769,4.59569231 L15.2910769,4.59569231 C15.2910769,1.96676923 13.2196923,0.374153846 11.1015385,0.374153846 L11.1015385,0.374153846 C9.87692308,0.374153846 8.63753846,0.905846154 7.77107692,2.07630769" id="path-7"/>
        <path d="M7.77107692,2.07630769 C5.44246154,-1.07323077 0.276923077,0.409846154 0.276923077,4.55507692 L0.276923077,4.55507692 C0.276923077,7.65292308 3.09046154,11.5113846 7.20861538,13.5790769 L7.20861538,13.5790769 C7.6,13.7747692 8.07138462,13.7723077 8.46153846,13.5716923 L8.46153846,13.5716923 C12.56,11.472 15.2910769,7.664 15.2910769,4.59569231 L15.2910769,4.59569231 C15.2910769,1.96676923 13.2196923,0.374153846 11.1015385,0.374153846 L11.1015385,0.374153846 C9.87692308,0.374153846 8.63753846,0.905846154 7.77107692,2.07630769" id="path-9"/>
        <path d="M7.77107692,2.07630769 C5.44246154,-1.07323077 0.276923077,0.409846154 0.276923077,4.55507692 L0.276923077,4.55507692 C0.276923077,7.65292308 3.09046154,11.5113846 7.20861538,13.5790769 L7.20861538,13.5790769 C7.6,13.7747692 8.07138462,13.7723077 8.46153846,13.5716923 L8.46153846,13.5716923 C12.56,11.472 15.2910769,7.664 15.2910769,4.59569231 L15.2910769,4.59569231 C15.2910769,1.96676923 13.2196923,0.374153846 11.1015385,0.374153846 L11.1015385,0.374153846 C9.87692308,0.374153846 8.63753846,0.905846154 7.77107692,2.07630769" id="path-11"/>
        <path d="M7.77107692,2.07630769 C5.44246154,-1.07323077 0.276923077,0.409846154 0.276923077,4.55507692 L0.276923077,4.55507692 C0.276923077,7.65292308 3.09046154,11.5113846 7.20861538,13.5790769 L7.20861538,13.5790769 C7.6,13.7747692 8.07138462,13.7723077 8.46153846,13.5716923 L8.46153846,13.5716923 C12.56,11.472 15.2910769,7.664 15.2910769,4.59569231 L15.2910769,4.59569231 C15.2910769,1.96676923 13.2196923,0.374153846 11.1015385,0.374153846 L11.1015385,0.374153846 C9.87692308,0.374153846 8.63753846,0.905846154 7.77107692,2.07630769" id="path-13"/>
        <path d="M7.77107692,2.07630769 C5.44246154,-1.07323077 0.276923077,0.409846154 0.276923077,4.55507692 L0.276923077,4.55507692 C0.276923077,7.65292308 3.09046154,11.5113846 7.20861538,13.5790769 L7.20861538,13.5790769 C7.6,13.7747692 8.07138462,13.7723077 8.46153846,13.5716923 L8.46153846,13.5716923 C12.56,11.472 15.2910769,7.664 15.2910769,4.59569231 L15.2910769,4.59569231 C15.2910769,1.96676923 13.2196923,0.374153846 11.1015385,0.374153846 L11.1015385,0.374153846 C9.87692308,0.374153846 8.63753846,0.905846154 7.77107692,2.07630769" id="path-15"/>
        <path d="M7.77107692,2.07630769 C5.44246154,-1.07323077 0.276923077,0.409846154 0.276923077,4.55507692 L0.276923077,4.55507692 C0.276923077,7.65292308 3.09046154,11.5113846 7.20861538,13.5790769 L7.20861538,13.5790769 C7.6,13.7747692 8.07138462,13.7723077 8.46153846,13.5716923 L8.46153846,13.5716923 C12.56,11.472 15.2910769,7.664 15.2910769,4.59569231 L15.2910769,4.59569231 C15.2910769,1.96676923 13.2196923,0.374153846 11.1015385,0.374153846 L11.1015385,0.374153846 C9.87692308,0.374153846 8.63753846,0.905846154 7.77107692,2.07630769" id="path-17"/>
        <path d="M7.77107692,2.07630769 C5.44246154,-1.07323077 0.276923077,0.409846154 0.276923077,4.55507692 L0.276923077,4.55507692 C0.276923077,7.65292308 3.09046154,11.5113846 7.20861538,13.5790769 L7.20861538,13.5790769 C7.6,13.7747692 8.07138462,13.7723077 8.46153846,13.5716923 L8.46153846,13.5716923 C12.56,11.472 15.2910769,7.664 15.2910769,4.59569231 L15.2910769,4.59569231 C15.2910769,1.96676923 13.2196923,0.374153846 11.1015385,0.374153846 L11.1015385,0.374153846 C9.87692308,0.374153846 8.63753846,0.905846154 7.77107692,2.07630769" id="path-19"/>
        <path d="M7.77107692,2.07630769 C5.44246154,-1.07323077 0.276923077,0.409846154 0.276923077,4.55507692 L0.276923077,4.55507692 C0.276923077,7.65292308 3.09046154,11.5113846 7.20861538,13.5790769 L7.20861538,13.5790769 C7.6,13.7747692 8.07138462,13.7723077 8.46153846,13.5716923 L8.46153846,13.5716923 C12.56,11.472 15.2910769,7.664 15.2910769,4.59569231 L15.2910769,4.59569231 C15.2910769,1.96676923 13.2196923,0.374153846 11.1015385,0.374153846 L11.1015385,0.374153846 C9.87692308,0.374153846 8.63753846,0.905846154 7.77107692,2.07630769" id="path-21"/>
        <path d="M7.77107692,2.07630769 C5.44246154,-1.07323077 0.276923077,0.409846154 0.276923077,4.55507692 L0.276923077,4.55507692 C0.276923077,7.65292308 3.09046154,11.5113846 7.20861538,13.5790769 L7.20861538,13.5790769 C7.6,13.7747692 8.07138462,13.7723077 8.46153846,13.5716923 L8.46153846,13.5716923 C12.56,11.472 15.2910769,7.664 15.2910769,4.59569231 L15.2910769,4.59569231 C15.2910769,1.96676923 13.2196923,0.374153846 11.1015385,0.374153846 L11.1015385,0.374153846 C9.87692308,0.374153846 8.63753846,0.905846154 7.77107692,2.07630769" id="path-23"/>
        <path d="M7.77107692,2.07630769 C5.44246154,-1.07323077 0.276923077,0.409846154 0.276923077,4.55507692 L0.276923077,4.55507692 C0.276923077,7.65292308 3.09046154,11.5113846 7.20861538,13.5790769 L7.20861538,13.5790769 C7.6,13.7747692 8.07138462,13.7723077 8.46153846,13.5716923 L8.46153846,13.5716923 C12.56,11.472 15.2910769,7.664 15.2910769,4.59569231 L15.2910769,4.59569231 C15.2910769,1.96676923 13.2196923,0.374153846 11.1015385,0.374153846 L11.1015385,0.374153846 C9.87692308,0.374153846 8.63753846,0.905846154 7.77107692,2.07630769" id="path-25"/>
        <path d="M7.77107692,2.07630769 C5.44246154,-1.07323077 0.276923077,0.409846154 0.276923077,4.55507692 L0.276923077,4.55507692 C0.276923077,7.65292308 3.09046154,11.5113846 7.20861538,13.5790769 L7.20861538,13.5790769 C7.6,13.7747692 8.07138462,13.7723077 8.46153846,13.5716923 L8.46153846,13.5716923 C12.56,11.472 15.2910769,7.664 15.2910769,4.59569231 L15.2910769,4.59569231 C15.2910769,1.96676923 13.2196923,0.374153846 11.1015385,0.374153846 L11.1015385,0.374153846 C9.87692308,0.374153846 8.63753846,0.905846154 7.77107692,2.07630769" id="path-27"/>
        <path d="M7.77107692,2.07630769 C5.44246154,-1.07323077 0.276923077,0.409846154 0.276923077,4.55507692 L0.276923077,4.55507692 C0.276923077,7.65292308 3.09046154,11.5113846 7.20861538,13.5790769 L7.20861538,13.5790769 C7.6,13.7747692 8.07138462,13.7723077 8.46153846,13.5716923 L8.46153846,13.5716923 C12.56,11.472 15.2910769,7.664 15.2910769,4.59569231 L15.2910769,4.59569231 C15.2910769,1.96676923 13.2196923,0.374153846 11.1015385,0.374153846 L11.1015385,0.374153846 C9.87692308,0.374153846 8.63753846,0.905846154 7.77107692,2.07630769" id="path-29"/>
    </defs>
    <g id="icons/notebook/favorites" stroke="none" stroke-width="1" fill="none" fill-rule="evenodd">
        <g id="Group-51" transform="translate(0.000000, 1.000000)">
            <path d="M7.77193846,2.4624 C5.44086154,-0.687138462 0.276553846,0.795938462 0.276553846,4.94116923 C0.276553846,8.04024615 3.09009231,11.8987077 7.20824615,13.9639385 C7.59963077,14.1608615 8.07101538,14.1584 8.4624,13.9577846 C12.5608615,11.8580923 15.2894769,8.05009231 15.2894769,4.98055385 C15.2894769,0.832861538 10.1350154,-0.732676923 7.77193846,2.4624" id="Fill-1" fill="#EE6E62"/>
            <g id="Group-48" transform="translate(0.000000, 0.386092)">
                <g id="Group-5">
                    <mask id="mask-2" fill="white">
                        <use xlink:href="#path-1"/>
                    </mask>
                    <g id="Clip-4"/>
                    <path d="M0.616984615,10.7842462 C2.0816,8.24024615 6.09144615,1.76886154 10.9616,-1.04836923" id="Stroke-3" stroke="#BF4A40" stroke-width="0.923076923" stroke-linecap="round" stroke-linejoin="round" mask="url(#mask-2)"/>
                </g>
                <g id="Group-8">
                    <mask id="mask-4" fill="white">
                        <use xlink:href="#path-3"/>
                    </mask>
                    <g id="Clip-7"/>
                    <path d="M12.2034462,-0.323938462 C12.2034462,-0.323938462 5.33944615,6.65821538 1.77144615,12.2865231" id="Stroke-6" stroke="#BF4A40" stroke-width="0.923076923" stroke-linecap="round" stroke-linejoin="round" mask="url(#mask-4)"/>
                </g>
                <g id="Group-11">
                    <mask id="mask-6" fill="white">
                        <use xlink:href="#path-5"/>
                    </mask>
                    <g id="Clip-10"/>
                    <line x1="3.50510769" y1="13.4411077" x2="13.6048" y2="0.770338462" id="Stroke-9" stroke="#BF4A40" stroke-width="0.923076923" stroke-linecap="round" stroke-linejoin="round" mask="url(#mask-6)"/>
                </g>
                <g id="Group-14">
                    <mask id="mask-8" fill="white">
                        <use xlink:href="#path-7"/>
                    </mask>
                    <g id="Clip-13"/>
                    <path d="M11.0256,4.46276923 C11.5683692,5.43507692 13.1523692,8.99323077 13.7874462,12.2855385" id="Stroke-12" stroke="#BF4A40" stroke-width="0.923076923" stroke-linecap="round" stroke-linejoin="round" mask="url(#mask-8)"/>
                </g>
                <g id="Group-17">
                    <mask id="mask-10" fill="white">
                        <use xlink:href="#path-9"/>
                    </mask>
                    <g id="Clip-16"/>
                    <path d="M9.38498462,6.19470769 C10.1788308,7.93624615 11.1880615,9.91778462 11.4182154,13.6728615" id="Stroke-15" stroke="#BF4A40" stroke-width="0.923076923" stroke-linecap="round" stroke-linejoin="round" mask="url(#mask-10)"/>
                </g>
                <g id="Group-20">
                    <mask id="mask-12" fill="white">
                        <use xlink:href="#path-11"/>
                    </mask>
                    <g id="Clip-19"/>
                    <path d="M7.07606154,-1.15556923 C7.30621538,-0.678030769 7.75052308,0.253661538 8.05083077,0.976123077" id="Stroke-18" stroke="#BF4A40" stroke-width="0.923076923" stroke-linecap="round" stroke-linejoin="round" mask="url(#mask-12)"/>
                </g>
                <g id="Group-23">
                    <mask id="mask-14" fill="white">
                        <use xlink:href="#path-13"/>
                    </mask>
                    <g id="Clip-22"/>
                    <path d="M7.62535385,8.68332308 C8.47212308,10.6685538 8.99273846,12.9787077 9.16627692,14.3079385" id="Stroke-21" stroke="#BF4A40" stroke-width="0.923076923" stroke-linecap="round" stroke-linejoin="round" mask="url(#mask-14)"/>
                </g>
                <g id="Group-26">
                    <mask id="mask-16" fill="white">
                        <use xlink:href="#path-15"/>
                    </mask>
                    <g id="Clip-25"/>
                    <path d="M4.0016,-0.707323077 C4.58006154,0.571446154 5.2176,2.11729231 5.68898462,3.30006154" id="Stroke-24" stroke="#BF4A40" stroke-width="0.923076923" stroke-linecap="round" stroke-linejoin="round" mask="url(#mask-16)"/>
                </g>
                <g id="Group-29">
                    <mask id="mask-18" fill="white">
                        <use xlink:href="#path-17"/>
                    </mask>
                    <g id="Clip-28"/>
                    <path d="M12.8729846,8.23741538 C13.5499077,7.64910769 14.2243692,6.99433846 14.8791385,6.26695385" id="Stroke-27" stroke="#BF4A40" stroke-width="0.923076923" stroke-linecap="round" stroke-linejoin="round" mask="url(#mask-18)"/>
                </g>
                <g id="Group-32">
                    <mask id="mask-20" fill="white">
                        <use xlink:href="#path-19"/>
                    </mask>
                    <g id="Clip-31"/>
                    <line x1="11.7083077" y1="5.70190769" x2="16.0898462" y2="6.29144615" id="Stroke-30" stroke="#BF4A40" stroke-width="0.923076923" stroke-linecap="round" stroke-linejoin="round" mask="url(#mask-20)"/>
                </g>
                <g id="Group-35">
                    <mask id="mask-22" fill="white">
                        <use xlink:href="#path-21"/>
                    </mask>
                    <g id="Clip-34"/>
                    <line x1="11.4126769" y1="3.65144615" x2="15.4126769" y2="4.04406154" id="Stroke-33" stroke="#BF4A40" stroke-width="0.923076923" stroke-linecap="round" stroke-linejoin="round" mask="url(#mask-22)"/>
                </g>
                <g id="Group-38">
                    <mask id="mask-24" fill="white">
                        <use xlink:href="#path-23"/>
                    </mask>
                    <g id="Clip-37"/>
                    <line x1="12.4318769" y1="2.38523077" x2="14.7666462" y2="2.33476923" id="Stroke-36" stroke="#BF4A40" stroke-width="0.923076923" stroke-linecap="round" stroke-linejoin="round" mask="url(#mask-24)"/>
                </g>
                <g id="Group-41">
                    <mask id="mask-26" fill="white">
                        <use xlink:href="#path-25"/>
                    </mask>
                    <g id="Clip-40"/>
                    <path d="M-0.768861538,6.97181538 C-0.137476923,6.84135385 2.00529231,6.7232 2.92836923,6.68258462" id="Stroke-39" stroke="#BF4A40" stroke-width="0.923076923" stroke-linecap="round" stroke-linejoin="round" mask="url(#mask-26)"/>
                </g>
                <g id="Group-44">
                    <mask id="mask-28" fill="white">
                        <use xlink:href="#path-27"/>
                    </mask>
                    <g id="Clip-43"/>
                    <path d="M-0.768861538,5.1232 C-0.0611692308,5.04935385 2.67236923,4.97427692 4.02621538,5.35335385" id="Stroke-42" stroke="#BF4A40" stroke-width="0.923076923" stroke-linecap="round" stroke-linejoin="round" mask="url(#mask-28)"/>
                </g>
                <g id="Group-47">
                    <mask id="mask-30" fill="white">
                        <use xlink:href="#path-29"/>
                    </mask>
                    <g id="Clip-46"/>
                    <path d="M0.353723077,2.70252308 C0.353723077,2.70252308 2.99618462,2.97944615 4.89033846,4.25206154" id="Stroke-45" stroke="#BF4A40" stroke-width="0.923076923" stroke-linecap="round" stroke-linejoin="round" mask="url(#mask-30)"/>
                </g>
            </g>
            <path d="M8.47507692,1.71064615 C8.02953846,2.0848 7.63569231,2.57464615 7.32676923,3.1888" id="Stroke-49" stroke="#1A444D" stroke-width="0.923076923" stroke-linecap="round" stroke-linejoin="round"/>
        </g>
    </g>
</svg>