<?xml version="1.0" encoding="UTF-8"?>
<svg width="16px" height="16px" viewBox="0 0 16 16" version="1.1" xmlns="http://www.w3.org/2000/svg" xmlns:xlink="http://www.w3.org/1999/xlink">
    <!-- Generator: Sketch 61.2 (89653) - https://sketch.com -->
    <title>icons/navigation/forums-primary-nav</title>
    <desc>Created with Sketch.</desc>
    <g id="icons/navigation/forums-primary-nav" stroke="none" stroke-width="1" fill="none" fill-rule="evenodd">
        <g id="Group-6-Copy" transform="translate(1.000000, 2.000000)">
            <path d="M7.73397378,9.79234188 L10.4710678,12.1390085 C10.7438883,12.3721709 11.1671362,12.2408889 11.2587601,11.8928547 L12.0122644,9.032 L7.73397378,9.79234188 Z" id="Fill-16" fill="#5998A6" fill-rule="nonzero"/>
            <polygon id="Fill-18" fill="#173036" points="10.7761618 9.79234188 7.8407772 9.88464957 9.33342677 11.1632821"/>
            <path d="M7.06826438,-1.53723188e-14 C0.50826438,-1.53723188e-14 0.123990876,2.7234188 0.123990876,5.03179487 C0.123990876,9.12752137 2.84946096,10.3275214 7.33287977,10.3275214 C10.8774951,10.3275214 14.4330507,10.1729915 14.4330507,5.86188034 C14.4330507,0.665982906 11.0614268,-1.53723188e-14 7.06826438,-1.53723188e-14" id="Fill-20" fill="#5998A6" fill-rule="nonzero"/>
            <path d="M0.790862671,2.09066667 C-0.327769808,3.77750427 -1.61529118,11.0602393 7.33240113,10.3279316 C7.35017891,10.3265641 7.36795669,10.3279316 7.38641823,10.3279316 C4.34231566,6.81340171 1.36385412,9.15870085 0.790862671,2.09066667" id="Fill-22" fill="#477A85" fill-rule="nonzero"/>
            <path d="M5.93780284,10.2837607 C6.38087977,10.3138462 6.84652079,10.3275214 7.33267464,10.3275214 C8.25438404,10.3275214 9.17609344,10.317265 10.0362644,10.2263248" id="Stroke-24" stroke="#173036" stroke-width="0.683760684" stroke-linecap="round" stroke-linejoin="round"/>
            <path d="M3.28289686,5.12683761 C4.63127293,5.73401709 7.71434985,5.64034188 7.71434985,3.85435897 C7.71434985,2.26461538 5.54067464,2.32 5.54067464,3.96376068 C5.54067464,6.8417094 8.91708489,6.52991453 11.5386234,6.09230769" id="Stroke-26" stroke="#FFFFFF" stroke-width="0.683760684" stroke-linecap="round" stroke-linejoin="round"/>
        </g>
    </g>
</svg>