<?xml version="1.0" encoding="UTF-8"?>
<svg width="16px" height="16px" viewBox="0 0 16 16" version="1.1" xmlns="http://www.w3.org/2000/svg" xmlns:xlink="http://www.w3.org/1999/xlink">
    <!-- Generator: Sketch 61.2 (89653) - https://sketch.com -->
    <title>icons/notebook/library</title>
    <desc>Created with Sketch.</desc>
    <defs>
        <polygon id="path-1" points="0.464165517 0.327448276 14.5004138 0.327448276 14.5004138 3.8617931 0.464165517 3.8617931"/>
        <polygon id="path-3" points="0 10.7572414 15.6038621 10.7572414 15.6038621 0.000275862069 0 0.000275862069"/>
    </defs>
    <g id="icons/notebook/library" stroke="none" stroke-width="1" fill="none" fill-rule="evenodd">
        <g id="Group-22" transform="translate(0.000000, 3.000000)">
            <g id="Group-3" transform="translate(1.103448, 6.895172)">
                <mask id="mask-2" fill="white">
                    <use xlink:href="#path-1"/>
                </mask>
                <g id="Clip-2"/>
                <path d="M13.9014069,0.327448276 C14.2324414,0.327448276 14.5005793,0.595034483 14.5005793,0.926068966 L14.5005793,3.26317241 C14.5005793,3.5942069 14.2324414,3.8617931 13.9014069,3.8617931 L1.06223448,3.8617931 C0.731751724,3.8617931 0.464165517,3.5942069 0.464165517,3.26317241 L0.464165517,0.926068966 C0.464165517,0.595034483 0.731751724,0.327448276 1.06223448,0.327448276 L13.9014069,0.327448276 Z" id="Fill-1" fill="#586AE8" mask="url(#mask-2)"/>
            </g>
            <mask id="mask-4" fill="white">
                <use xlink:href="#path-3"/>
            </mask>
            <g id="Clip-5"/>
            <polygon id="Fill-4" fill="#7391FE" mask="url(#mask-4)" points="10.0369655 10.7572414 11.4758621 10.7572414 11.4758621 7.22289655 10.0369655 7.22289655"/>
            <polygon id="Fill-6" fill="#7391FE" mask="url(#mask-4)" points="4.10096552 10.7572414 6.47006897 10.7572414 6.47006897 7.22289655 4.10096552 7.22289655"/>
            <polygon id="Fill-7" fill="#7391FE" mask="url(#mask-4)" points="12.4656552 10.7572414 13.9051034 10.7572414 13.9051034 7.22289655 12.4656552 7.22289655"/>
            <path d="M14.0129655,4.4656 L14.0129655,6.9433931 C14.0129655,7.29153103 13.7310345,7.57346207 13.3828966,7.57346207 L0.630344828,7.57346207 C0.282206897,7.57346207 0.000275862069,7.29153103 0.000275862069,6.9433931 L0.000275862069,4.4656 C0.000275862069,4.11746207 0.282206897,3.83553103 0.630344828,3.83553103 L13.3828966,3.83553103 C13.7310345,3.83553103 14.0129655,4.11746207 14.0129655,4.4656" id="Fill-8" fill="#7391FE" mask="url(#mask-4)"/>
            <line x1="12.1110069" y1="5.01842759" x2="12.1110069" y2="6.43635862" id="Stroke-9" stroke="#586AE8" stroke-width="0.662068966" stroke-linecap="round" stroke-linejoin="round" mask="url(#mask-4)"/>
            <path d="M3.32386207,5.72744828 L3.32386207,5.72744828 C3.32386207,6.09765517 3.02427586,6.39724138 2.65406897,6.39724138 L2.06317241,6.39724138 C1.69296552,6.39724138 1.39337931,6.09765517 1.39337931,5.72744828 C1.39337931,5.35724138 1.69296552,5.05765517 2.06317241,5.05765517 L2.65406897,5.05765517 C3.02427586,5.05765517 3.32386207,5.35724138 3.32386207,5.72744828" id="Fill-10" fill="#586AE8" mask="url(#mask-4)"/>
            <path d="M7.1094069,5.0486069 L7.9689931,5.6726069 C8.13395862,5.79233103 8.35961379,5.6681931 8.35961379,5.45688276 L8.35961379,1.63288276 L5.57671724,1.63288276 L5.57671724,5.45688276 C5.57671724,5.6681931 5.80182069,5.79233103 5.96733793,5.6726069 L6.82637241,5.0486069 C6.91188966,4.98681379 7.02444138,4.98681379 7.1094069,5.0486069" id="Fill-11" fill="#586AE8" mask="url(#mask-4)"/>
            <path d="M2.43696552,0.000110344828 C1.97682759,0.000110344828 1.60386207,0.373075862 1.60386207,0.833213793 L1.60386207,2.68093793 C1.60386207,3.14107586 1.97682759,3.5145931 2.43696552,3.5145931 L14.105931,3.5145931 L14.105931,0.000110344828 L2.43696552,0.000110344828 Z" id="Fill-12" fill="#F3F4F0" mask="url(#mask-4)"/>
            <polygon id="Fill-13" fill="#D3D6CB" mask="url(#mask-4)" points="5.57627586 3.51475862 8.35917241 3.51475862 8.35917241 1.63282759 5.57627586 1.63282759"/>
            <path d="M14.1061517,0.312606897 L2.59332414,0.312606897 C2.13373793,0.312606897 1.76022069,0.685572414 1.76022069,1.14571034 L1.76022069,1.50433103 L14.1061517,1.50433103 L14.1061517,0.312606897 Z" id="Fill-14" fill="#D3D6CB" mask="url(#mask-4)"/>
            <path d="M14.5361103,0.312606897 L2.59348966,0.312606897 C2.13335172,0.312606897 1.76038621,0.685572414 1.76038621,1.14571034 L1.76038621,2.99398621 C1.76038621,3.45412414 2.13335172,3.82708966 2.59348966,3.82708966 L14.5361103,3.82708966" id="Stroke-15" stroke="#586AE8" stroke-width="0.662068966" stroke-linecap="round" stroke-linejoin="round" mask="url(#mask-4)"/>
            <path d="M7.42245517,4.77489655 L8.28148966,5.39889655 C8.44645517,5.51917241 8.67211034,5.39448276 8.67211034,5.18372414 L8.67211034,1.35917241 L5.88921379,1.35917241 L5.88921379,5.18372414 C5.88921379,5.39448276 6.11486897,5.51917241 6.27983448,5.39889655 L7.13886897,4.77489655 C7.22438621,4.71310345 7.33693793,4.71310345 7.42245517,4.77489655" id="Fill-16" fill="#EE6E62" mask="url(#mask-4)"/>
            <polygon id="Fill-17" fill="#BF4A40" mask="url(#mask-4)" points="5.88910345 2.136 8.672 2.136 8.672 1.35917241 5.88910345 1.35917241"/>
            <line x1="5.5318069" y1="1.35895172" x2="9.02918621" y2="1.35895172" id="Stroke-18" stroke="#173036" stroke-width="0.662068966" stroke-linecap="round" stroke-linejoin="round" mask="url(#mask-4)"/>
            <line x1="8.17677241" y1="3.60137931" x2="8.17677241" y2="3.86510345" id="Stroke-19" stroke="#FFFFFF" stroke-width="0.662068966" stroke-linecap="round" stroke-linejoin="round" mask="url(#mask-4)"/>
            <line x1="8.17677241" y1="2.72209655" x2="8.17677241" y2="2.75133793" id="Stroke-20" stroke="#FFFFFF" stroke-width="0.662068966" stroke-linecap="round" stroke-linejoin="round" mask="url(#mask-4)"/>
            <line x1="0.976882759" y1="7.67845517" x2="9.76915862" y2="7.52231724" id="Stroke-21" stroke="#173036" stroke-width="0.662068966" stroke-linecap="round" stroke-linejoin="round" mask="url(#mask-4)"/>
        </g>
    </g>
</svg>