<?xml version="1.0" encoding="UTF-8"?>
<svg width="16px" height="16px" viewBox="0 0 16 16" version="1.1" xmlns="http://www.w3.org/2000/svg" xmlns:xlink="http://www.w3.org/1999/xlink">
    <!-- Generator: Sketch 61.2 (89653) - https://sketch.com -->
    <title>icons/notebook/queue</title>
    <desc>Created with Sketch.</desc>
    <defs>
        <polygon id="path-1" points="0 0.200725723 11.5467244 0.200725723 11.5467244 13.4845061 0 13.4845061"/>
        <polygon id="path-3" points="0.0146843041 0.0663001372 11.2188625 0.0663001372 11.2188625 13.0737131 0.0146843041 13.0737131"/>
        <path d="M0.452863649,1.37502551 C0.410161866,2.15433306 1.0068631,2.82126749 1.78560878,2.86453114 L1.78560878,2.86453114 C2.56491632,2.90723292 3.23241262,2.31053169 3.27567627,1.53178601 L3.27567627,1.53178601 C3.31893992,0.751916598 2.72167682,0.0855440329 1.94293114,0.0417185185 L1.94293114,0.0417185185 C1.91596159,0.0405947874 1.88899204,0.0394710562 1.86258436,0.0394710562 L1.86258436,0.0394710562 C1.11811248,0.0394710562 0.495003567,0.622125652 0.452863649,1.37502551" id="path-5"/>
        <path d="M0.452863649,1.37502551 C0.410161866,2.15433306 1.0068631,2.82126749 1.78560878,2.86453114 L1.78560878,2.86453114 C2.56491632,2.90723292 3.23241262,2.31053169 3.27567627,1.53178601 L3.27567627,1.53178601 C3.31893992,0.751916598 2.72167682,0.0855440329 1.94293114,0.0417185185 L1.94293114,0.0417185185 C1.91596159,0.0405947874 1.88899204,0.0394710562 1.86258436,0.0394710562 L1.86258436,0.0394710562 C1.11811248,0.0394710562 0.495003567,0.622125652 0.452863649,1.37502551" id="path-7"/>
        <path d="M0.452863649,1.37502551 C0.410161866,2.15433306 1.0068631,2.82126749 1.78560878,2.86453114 L1.78560878,2.86453114 C2.56491632,2.90723292 3.23241262,2.31053169 3.27567627,1.53178601 L3.27567627,1.53178601 C3.31893992,0.751916598 2.72167682,0.0855440329 1.94293114,0.0417185185 L1.94293114,0.0417185185 C1.91596159,0.0405947874 1.88899204,0.0394710562 1.86258436,0.0394710562 L1.86258436,0.0394710562 C1.11811248,0.0394710562 0.495003567,0.622125652 0.452863649,1.37502551" id="path-9"/>
        <path d="M0.452863649,1.37502551 C0.410161866,2.15433306 1.0068631,2.82126749 1.78560878,2.86453114 L1.78560878,2.86453114 C2.56491632,2.90723292 3.23241262,2.31053169 3.27567627,1.53178601 L3.27567627,1.53178601 C3.31893992,0.751916598 2.72167682,0.0855440329 1.94293114,0.0417185185 L1.94293114,0.0417185185 C1.91596159,0.0405947874 1.88899204,0.0394710562 1.86258436,0.0394710562 L1.86258436,0.0394710562 C1.11811248,0.0394710562 0.495003567,0.622125652 0.452863649,1.37502551" id="path-11"/>
        <path d="M0.452863649,1.37502551 C0.410161866,2.15433306 1.0068631,2.82126749 1.78560878,2.86453114 L1.78560878,2.86453114 C2.56491632,2.90723292 3.23241262,2.31053169 3.27567627,1.53178601 L3.27567627,1.53178601 C3.31893992,0.751916598 2.72167682,0.0855440329 1.94293114,0.0417185185 L1.94293114,0.0417185185 C1.91596159,0.0405947874 1.88899204,0.0394710562 1.86258436,0.0394710562 L1.86258436,0.0394710562 C1.11811248,0.0394710562 0.495003567,0.622125652 0.452863649,1.37502551" id="path-13"/>
        <path d="M0.452863649,1.37502551 C0.410161866,2.15433306 1.0068631,2.82126749 1.78560878,2.86453114 L1.78560878,2.86453114 C2.56491632,2.90723292 3.23241262,2.31053169 3.27567627,1.53178601 L3.27567627,1.53178601 C3.31893992,0.751916598 2.72167682,0.0855440329 1.94293114,0.0417185185 L1.94293114,0.0417185185 C1.91596159,0.0405947874 1.88899204,0.0394710562 1.86258436,0.0394710562 L1.86258436,0.0394710562 C1.11811248,0.0394710562 0.495003567,0.622125652 0.452863649,1.37502551" id="path-15"/>
        <path d="M0.126419753,1.33892565 C0.0831561043,2.1182332 0.679857339,2.78516763 1.45972675,2.82899314 L1.45972675,2.82899314 C2.23847243,2.87225679 2.90540686,2.27499369 2.94810864,1.49568615 L2.94810864,1.49568615 C2.99193416,0.716378601 2.39579479,0.0494441701 1.61592538,0.00618052126 L1.61592538,0.00618052126 C1.5895177,0.00449492455 1.56311001,0.00393305898 1.53670233,0.00393305898 L1.53670233,0.00393305898 C0.792230453,0.00393305898 0.167997805,0.586025789 0.126419753,1.33892565" id="path-17"/>
        <path d="M0.126419753,1.33892565 C0.0831561043,2.1182332 0.679857339,2.78516763 1.45972675,2.82899314 L1.45972675,2.82899314 C2.23847243,2.87225679 2.90540686,2.27499369 2.94810864,1.49568615 L2.94810864,1.49568615 C2.99193416,0.716378601 2.39579479,0.0494441701 1.61592538,0.00618052126 L1.61592538,0.00618052126 C1.5895177,0.00449492455 1.56311001,0.00393305898 1.53670233,0.00393305898 L1.53670233,0.00393305898 C0.792230453,0.00393305898 0.167997805,0.586025789 0.126419753,1.33892565" id="path-19"/>
        <path d="M0.126419753,1.33892565 C0.0831561043,2.1182332 0.679857339,2.78516763 1.45972675,2.82899314 L1.45972675,2.82899314 C2.23847243,2.87225679 2.90540686,2.27499369 2.94810864,1.49568615 L2.94810864,1.49568615 C2.99193416,0.716378601 2.39579479,0.0494441701 1.61592538,0.00618052126 L1.61592538,0.00618052126 C1.5895177,0.00449492455 1.56311001,0.00393305898 1.53670233,0.00393305898 L1.53670233,0.00393305898 C0.792230453,0.00393305898 0.167997805,0.586025789 0.126419753,1.33892565" id="path-21"/>
        <path d="M0.126419753,1.33892565 C0.0831561043,2.1182332 0.679857339,2.78516763 1.45972675,2.82899314 L1.45972675,2.82899314 C2.23847243,2.87225679 2.90540686,2.27499369 2.94810864,1.49568615 L2.94810864,1.49568615 C2.99193416,0.716378601 2.39579479,0.0494441701 1.61592538,0.00618052126 L1.61592538,0.00618052126 C1.5895177,0.00449492455 1.56311001,0.00393305898 1.53670233,0.00393305898 L1.53670233,0.00393305898 C0.792230453,0.00393305898 0.167997805,0.586025789 0.126419753,1.33892565" id="path-23"/>
        <path d="M0.126419753,1.33892565 C0.0831561043,2.1182332 0.679857339,2.78516763 1.45972675,2.82899314 L1.45972675,2.82899314 C2.23847243,2.87225679 2.90540686,2.27499369 2.94810864,1.49568615 L2.94810864,1.49568615 C2.99193416,0.716378601 2.39579479,0.0494441701 1.61592538,0.00618052126 L1.61592538,0.00618052126 C1.5895177,0.00449492455 1.56311001,0.00393305898 1.53670233,0.00393305898 L1.53670233,0.00393305898 C0.792230453,0.00393305898 0.167997805,0.586025789 0.126419753,1.33892565" id="path-25"/>
        <path d="M0.126419753,1.33892565 C0.0831561043,2.1182332 0.679857339,2.78516763 1.45972675,2.82899314 L1.45972675,2.82899314 C2.23847243,2.87225679 2.90540686,2.27499369 2.94810864,1.49568615 L2.94810864,1.49568615 C2.99193416,0.716378601 2.39579479,0.0494441701 1.61592538,0.00618052126 L1.61592538,0.00618052126 C1.5895177,0.00449492455 1.56311001,0.00393305898 1.53670233,0.00393305898 L1.53670233,0.00393305898 C0.792230453,0.00393305898 0.167997805,0.586025789 0.126419753,1.33892565" id="path-27"/>
        <path d="M0.302845542,1.45017503 C0.259020027,2.22948258 0.856283128,2.89641701 1.63559067,2.93911879 L1.63559067,2.93911879 C2.41489822,2.98294431 3.08183265,2.38680494 3.12565816,1.60693553 L3.12565816,1.60693553 C3.16892181,0.827627984 2.57165871,0.160693553 1.79235117,0.116868038 L1.79235117,0.116868038 C1.76594348,0.115744307 1.7395358,0.115182442 1.71312812,0.115182442 L1.71312812,0.115182442 C0.968094376,0.115182442 0.344423594,0.697275171 0.302845542,1.45017503" id="path-29"/>
        <path d="M0.302845542,1.45017503 C0.259020027,2.22948258 0.856283128,2.89641701 1.63559067,2.93911879 L1.63559067,2.93911879 C2.41489822,2.98294431 3.08183265,2.38680494 3.12565816,1.60693553 L3.12565816,1.60693553 C3.16892181,0.827627984 2.57165871,0.160693553 1.79235117,0.116868038 L1.79235117,0.116868038 C1.76594348,0.115744307 1.7395358,0.115182442 1.71312812,0.115182442 L1.71312812,0.115182442 C0.968094376,0.115182442 0.344423594,0.697275171 0.302845542,1.45017503" id="path-31"/>
        <path d="M0.302845542,1.45017503 C0.259020027,2.22948258 0.856283128,2.89641701 1.63559067,2.93911879 L1.63559067,2.93911879 C2.41489822,2.98294431 3.08183265,2.38680494 3.12565816,1.60693553 L3.12565816,1.60693553 C3.16892181,0.827627984 2.57165871,0.160693553 1.79235117,0.116868038 L1.79235117,0.116868038 C1.76594348,0.115744307 1.7395358,0.115182442 1.71312812,0.115182442 L1.71312812,0.115182442 C0.968094376,0.115182442 0.344423594,0.697275171 0.302845542,1.45017503" id="path-33"/>
        <path d="M0.302845542,1.45017503 C0.259020027,2.22948258 0.856283128,2.89641701 1.63559067,2.93911879 L1.63559067,2.93911879 C2.41489822,2.98294431 3.08183265,2.38680494 3.12565816,1.60693553 L3.12565816,1.60693553 C3.16892181,0.827627984 2.57165871,0.160693553 1.79235117,0.116868038 L1.79235117,0.116868038 C1.76594348,0.115744307 1.7395358,0.115182442 1.71312812,0.115182442 L1.71312812,0.115182442 C0.968094376,0.115182442 0.344423594,0.697275171 0.302845542,1.45017503" id="path-35"/>
        <path d="M0.302845542,1.45017503 C0.259020027,2.22948258 0.856283128,2.89641701 1.63559067,2.93911879 L1.63559067,2.93911879 C2.41489822,2.98294431 3.08183265,2.38680494 3.12565816,1.60693553 L3.12565816,1.60693553 C3.16892181,0.827627984 2.57165871,0.160693553 1.79235117,0.116868038 L1.79235117,0.116868038 C1.76594348,0.115744307 1.7395358,0.115182442 1.71312812,0.115182442 L1.71312812,0.115182442 C0.968094376,0.115182442 0.344423594,0.697275171 0.302845542,1.45017503" id="path-37"/>
        <path d="M0.302845542,1.45017503 C0.259020027,2.22948258 0.856283128,2.89641701 1.63559067,2.93911879 L1.63559067,2.93911879 C2.41489822,2.98294431 3.08183265,2.38680494 3.12565816,1.60693553 L3.12565816,1.60693553 C3.16892181,0.827627984 2.57165871,0.160693553 1.79235117,0.116868038 L1.79235117,0.116868038 C1.76594348,0.115744307 1.7395358,0.115182442 1.71312812,0.115182442 L1.71312812,0.115182442 C0.968094376,0.115182442 0.344423594,0.697275171 0.302845542,1.45017503" id="path-39"/>
    </defs>
    <g id="icons/notebook/queue" stroke="none" stroke-width="1" fill="none" fill-rule="evenodd">
        <g id="Group-88" transform="translate(1.500000, 0.500000)">
            <g id="Group-13" transform="translate(0.000000, 0.021772)">
                <g id="Group-3" transform="translate(0.000000, 1.123731)">
                    <mask id="mask-2" fill="white">
                        <use xlink:href="#path-1"/>
                    </mask>
                    <g id="Clip-2"/>
                    <path d="M11.2262426,1.17222014 C11.4217719,1.19188543 11.5650476,1.36662562 11.5448204,1.56159298 L10.3823205,13.164117 C10.3626553,13.3596462 10.1879151,13.5023601 9.99238584,13.4826948 L0.3209938,12.5140385 C0.124902716,12.4938114 -0.0178111385,12.319633 0.00129229081,12.1235419 L1.16435402,0.522141674 C1.18401931,0.32605059 1.35875951,0.183336735 1.55428872,0.202440165 L11.2262426,1.17222014 Z" id="Fill-1" fill="#C4C9B5" mask="url(#mask-2)"/>
                </g>
                <path d="M10.646285,1.28582936 L12.2032145,12.8411567 C12.2296222,13.036124 12.0930888,13.2153591 11.8986833,13.2417668 L2.2649363,14.5402381 C2.06996894,14.5666458 1.89073383,14.4295506 1.86432615,14.2345833 L0.307396653,2.6786941 C0.280988971,2.48372675 0.41808417,2.30449163 0.613051523,2.27864582 L10.2456748,0.980174486 C10.4412041,0.953766804 10.6198773,1.09030014 10.646285,1.28582936" id="Fill-4" fill="#D3D6CB"/>
                <polygon id="Fill-6" fill="#C4C9B5" points="9.99659984 12.6679897 1.54782727 11.8836253 1.70346403 13.0405066"/>
                <g id="Group-10" transform="translate(1.035940, 0.000000)">
                    <mask id="mask-4" fill="white">
                        <use xlink:href="#path-3"/>
                    </mask>
                    <g id="Clip-9"/>
                    <path d="M11.2180113,1.10856077 L10.4235334,12.7419874 C10.4106105,12.9380785 10.2403652,13.0858491 10.0437123,13.0729262 L0.345912538,12.4104867 C0.15038332,12.3975638 0.00205080933,12.2273185 0.015535583,12.0306656 L0.810013498,0.397800823 C0.822936406,0.201709739 0.993181674,0.0533772291 1.18927276,0.0668620027 L10.8870725,0.728739643 C11.0831636,0.742786283 11.2314961,0.912469684 11.2180113,1.10856077" id="Fill-8" fill="#F3F4F0" mask="url(#mask-4)"/>
                </g>
                <path d="M4.96121679,10.4336751 C4.91795314,11.2129826 4.25045684,11.809122 3.47171117,11.7664202 C2.69240362,11.7231565 2.09514052,11.0556602 2.13896604,10.2769146 C2.18222968,9.49704516 2.84860225,8.90034392 3.62847166,8.94416944 C4.4077792,8.98743309 5.00448044,9.65380565 4.96121679,10.4336751" id="Fill-11" fill="#5998A6"/>
            </g>
            <g id="Group-32" transform="translate(1.685597, 8.923830)">
                <g id="Group-16">
                    <mask id="mask-6" fill="white">
                        <use xlink:href="#path-5"/>
                    </mask>
                    <g id="Clip-15"/>
                    <line x1="0.459718409" y1="0.806248999" x2="2.0868811" y2="2.94246189" id="Stroke-14" stroke="#477A85" stroke-width="0.5" stroke-linecap="round" stroke-linejoin="round" mask="url(#mask-6)"/>
                </g>
                <g id="Group-19">
                    <mask id="mask-8" fill="white">
                        <use xlink:href="#path-7"/>
                    </mask>
                    <g id="Clip-18"/>
                    <line x1="0.910166036" y1="0.10060203" x2="2.88961844" y2="2.70765827" id="Stroke-17" stroke="#477A85" stroke-width="0.5" stroke-linecap="round" stroke-linejoin="round" mask="url(#mask-8)"/>
                </g>
                <g id="Group-22">
                    <mask id="mask-10" fill="white">
                        <use xlink:href="#path-9"/>
                    </mask>
                    <g id="Clip-21"/>
                    <line x1="1.63559067" y1="0.903901235" x2="2.77224472" y2="0.120098765" id="Stroke-20" stroke="#477A85" stroke-width="0.5" stroke-linecap="round" stroke-linejoin="round" mask="url(#mask-10)"/>
                </g>
                <g id="Group-25">
                    <mask id="mask-12" fill="white">
                        <use xlink:href="#path-11"/>
                    </mask>
                    <g id="Clip-24"/>
                    <line x1="2.04710102" y1="1.3939042" x2="3.28208154" y2="0.707866337" id="Stroke-23" stroke="#477A85" stroke-width="0.5" stroke-linecap="round" stroke-linejoin="round" mask="url(#mask-12)"/>
                </g>
                <g id="Group-28">
                    <mask id="mask-14" fill="white">
                        <use xlink:href="#path-13"/>
                    </mask>
                    <g id="Clip-27"/>
                    <line x1="2.8701217" y1="0.963178052" x2="2.6155966" y2="2.217262" id="Stroke-26" stroke="#477A85" stroke-width="0.5" stroke-linecap="round" stroke-linejoin="round" mask="url(#mask-14)"/>
                </g>
                <g id="Group-31">
                    <mask id="mask-16" fill="white">
                        <use xlink:href="#path-15"/>
                    </mask>
                    <g id="Clip-30"/>
                    <line x1="0.988658656" y1="1.64904735" x2="0.341951385" y2="2.15865942" id="Stroke-29" stroke="#477A85" stroke-width="0.5" stroke-linecap="round" stroke-linejoin="round" mask="url(#mask-16)"/>
                </g>
            </g>
            <g id="Group-47" transform="translate(2.247462, 1.707369)">
                <line x1="4.16398573" y1="0.554954623" x2="7.52562743" y2="0.80386107" id="Stroke-33" stroke="#586AE8" stroke-width="0.702331962" stroke-linecap="round" stroke-linejoin="round"/>
                <line x1="4.05970348" y1="1.62654464" x2="8.29279868" y2="1.94006562" id="Stroke-35" stroke="#D3D6CB" stroke-width="0.702331962" stroke-linecap="round" stroke-linejoin="round"/>
                <line x1="3.85063331" y1="4.3969352" x2="7.21171314" y2="4.64527978" id="Stroke-37" stroke="#586AE8" stroke-width="0.702331962" stroke-linecap="round" stroke-linejoin="round"/>
                <line x1="3.74584538" y1="5.46796335" x2="7.97950244" y2="5.7820462" id="Stroke-39" stroke="#D3D6CB" stroke-width="0.702331962" stroke-linecap="round" stroke-linejoin="round"/>
                <line x1="3.48469026" y1="8.21200241" x2="6.84633196" y2="8.46090886" id="Stroke-41" stroke="#586AE8" stroke-width="0.702331962" stroke-linecap="round" stroke-linejoin="round"/>
                <line x1="3.37990233" y1="9.28359243" x2="7.6135594" y2="9.59711342" id="Stroke-43" stroke="#D3D6CB" stroke-width="0.702331962" stroke-linecap="round" stroke-linejoin="round"/>
                <path d="M2.94861432,4.86716049 C2.90535067,5.64646804 2.23841624,6.24316927 1.45967056,6.19990562 C0.679801152,6.15664198 0.0830999177,5.48914568 0.126925432,4.7104 C0.169627215,3.93109246 0.836561646,3.33382936 1.61586919,3.37765487 C2.3957386,3.42091852 2.99187797,4.08729108 2.94861432,4.86716049" id="Fill-45" fill="#7391FE"/>
            </g>
            <g id="Group-66" transform="translate(2.247462, 5.078562)">
                <g id="Group-50">
                    <mask id="mask-18" fill="white">
                        <use xlink:href="#path-17"/>
                    </mask>
                    <g id="Clip-49"/>
                    <line x1="0.132712647" y1="0.770598628" x2="1.75987534" y2="2.90737339" id="Stroke-48" stroke="#586AE8" stroke-width="0.5" stroke-linecap="round" stroke-linejoin="round" mask="url(#mask-18)"/>
                </g>
                <g id="Group-53">
                    <mask id="mask-20" fill="white">
                        <use xlink:href="#path-19"/>
                    </mask>
                    <g id="Clip-52"/>
                    <line x1="0.58372214" y1="0.0649516598" x2="2.56317454" y2="2.6720079" id="Stroke-51" stroke="#586AE8" stroke-width="0.5" stroke-linecap="round" stroke-linejoin="round" mask="url(#mask-20)"/>
                </g>
                <g id="Group-56">
                    <mask id="mask-22" fill="white">
                        <use xlink:href="#path-21"/>
                    </mask>
                    <g id="Clip-55"/>
                    <line x1="1.30909059" y1="0.86881273" x2="2.44574464" y2="0.0844483951" id="Stroke-54" stroke="#586AE8" stroke-width="0.5" stroke-linecap="round" stroke-linejoin="round" mask="url(#mask-22)"/>
                </g>
                <g id="Group-59">
                    <mask id="mask-24" fill="white">
                        <use xlink:href="#path-23"/>
                    </mask>
                    <g id="Clip-58"/>
                    <line x1="1.72060093" y1="1.35881569" x2="2.95501959" y2="0.672777833" id="Stroke-57" stroke="#586AE8" stroke-width="0.5" stroke-linecap="round" stroke-linejoin="round" mask="url(#mask-24)"/>
                </g>
                <g id="Group-62">
                    <mask id="mask-26" fill="white">
                        <use xlink:href="#path-25"/>
                    </mask>
                    <g id="Clip-61"/>
                    <line x1="2.54367781" y1="0.927527682" x2="2.2891527" y2="2.18161163" id="Stroke-60" stroke="#586AE8" stroke-width="0.5" stroke-linecap="round" stroke-linejoin="round" mask="url(#mask-26)"/>
                </g>
                <g id="Group-65">
                    <mask id="mask-28" fill="white">
                        <use xlink:href="#path-27"/>
                    </mask>
                    <g id="Clip-64"/>
                    <line x1="0.662158573" y1="1.61339698" x2="0.0154513032" y2="2.12300905" id="Stroke-63" stroke="#586AE8" stroke-width="0.5" stroke-linecap="round" stroke-linejoin="round" mask="url(#mask-28)"/>
                </g>
            </g>
            <path d="M5.37272713,2.75232658 C5.32946348,3.53219599 4.66196719,4.12833536 3.88322151,4.08507171 C3.10391396,4.04180807 2.50665086,3.37487364 2.55047638,2.59556609 C2.59374003,1.81625855 3.26011259,1.21955731 4.039982,1.26282096 C4.81928955,1.30608461 5.41599078,1.97301904 5.37272713,2.75232658" id="Fill-67" fill="#EE6E62"/>
            <g id="Group-87" transform="translate(2.247462, 1.145503)">
                <g id="Group-71">
                    <mask id="mask-30" fill="white">
                        <use xlink:href="#path-29"/>
                    </mask>
                    <g id="Clip-70"/>
                    <line x1="0.309363182" y1="0.881960384" x2="1.93652587" y2="3.01817328" id="Stroke-69" stroke="#BF4A40" stroke-width="0.5" stroke-linecap="round" stroke-linejoin="round" mask="url(#mask-30)"/>
                </g>
                <g id="Group-74">
                    <mask id="mask-32" fill="white">
                        <use xlink:href="#path-31"/>
                    </mask>
                    <g id="Clip-73"/>
                    <line x1="0.760372675" y1="0.176369602" x2="2.73926321" y2="2.78286398" id="Stroke-72" stroke="#BF4A40" stroke-width="0.5" stroke-linecap="round" stroke-linejoin="round" mask="url(#mask-32)"/>
                </g>
                <g id="Group-77">
                    <mask id="mask-34" fill="white">
                        <use xlink:href="#path-33"/>
                    </mask>
                    <g id="Clip-76"/>
                    <line x1="1.48523545" y1="0.97961262" x2="2.62188949" y2="0.195248285" id="Stroke-75" stroke="#BF4A40" stroke-width="0.5" stroke-linecap="round" stroke-linejoin="round" mask="url(#mask-34)"/>
                </g>
                <g id="Group-80">
                    <mask id="mask-36" fill="white">
                        <use xlink:href="#path-35"/>
                    </mask>
                    <g id="Clip-79"/>
                    <line x1="1.89674579" y1="1.46961558" x2="3.13172631" y2="0.783577723" id="Stroke-78" stroke="#BF4A40" stroke-width="0.5" stroke-linecap="round" stroke-linejoin="round" mask="url(#mask-36)"/>
                </g>
                <g id="Group-83">
                    <mask id="mask-38" fill="white">
                        <use xlink:href="#path-37"/>
                    </mask>
                    <g id="Clip-82"/>
                    <line x1="2.72032834" y1="1.03832757" x2="2.46524137" y2="2.29241152" id="Stroke-81" stroke="#BF4A40" stroke-width="0.5" stroke-linecap="round" stroke-linejoin="round" mask="url(#mask-38)"/>
                </g>
                <g id="Group-86">
                    <mask id="mask-40" fill="white">
                        <use xlink:href="#path-39"/>
                    </mask>
                    <g id="Clip-85"/>
                    <line x1="0.838303429" y1="1.72475874" x2="0.192158025" y2="2.23380894" id="Stroke-84" stroke="#BF4A40" stroke-width="0.5" stroke-linecap="round" stroke-linejoin="round" mask="url(#mask-40)"/>
                </g>
            </g>
        </g>
    </g>
</svg>