<?xml version="1.0" encoding="UTF-8"?>
<svg width="16px" height="16px" viewBox="0 0 16 16" version="1.1" xmlns="http://www.w3.org/2000/svg" xmlns:xlink="http://www.w3.org/1999/xlink">
    <!-- Generator: Sketch 61.2 (89653) - https://sketch.com -->
    <title>icons/ui/share</title>
    <desc>Created with Sketch.</desc>
    <defs>
        <polygon id="path-1" points="0 0.363446154 4.71015385 0.363446154 4.71015385 4.545581 0 4.545581"></polygon>
    </defs>
    <g id="icons/ui/share" stroke="none" stroke-width="1" fill="none" fill-rule="evenodd">
        <g id="Group-20">
            <polygon id="Fill-1" fill="#595959" points="0.701169231 7.67406496 9.22178462 13.5177573 9.99347692 12.3916034 3.50978462 7.94360342 11.7177846 4.37806496 11.1725538 3.12514188"></polygon>
            <g id="Group-19" transform="translate(0.000000, 0.193846)">
                <path d="M9.22141538,13.3242803 L9.99310769,12.1981265 L7.86264615,10.7359726 C7.56356923,10.9033573 7.2928,11.1322803 7.07618462,11.4252034 C7.00356923,11.5224342 6.95064615,11.6258188 6.89403077,11.7292034 L9.22141538,13.3242803 Z" id="Fill-2" fill="#000000"></path>
                <path d="M11.1721846,2.93068034 L9.50449231,3.65560342 C9.5008,3.71714188 9.48726154,3.7762188 9.48849231,3.83898803 C9.49341538,4.26729573 9.60664615,4.66483419 9.78633846,5.02175726 L11.7161846,4.18360342 L11.1721846,2.93068034 Z" id="Fill-4" fill="#000000"></path>
                <path d="M15.5532308,2.93548034 C15.5753846,4.49609573 14.3273846,5.77855726 12.7655385,5.80071111 C11.2061538,5.82163419 9.92369231,4.57363419 9.90153846,3.0130188 C9.88061538,1.45240342 11.1286154,0.16994188 12.6892308,0.147788034 C14.2498462,0.126864957 15.5323077,1.37486496 15.5532308,2.93548034" id="Fill-6" fill="#EF6E60"></path>
                <path d="M14.7094154,4.98237265 C12.2712615,5.27529573 10.6355692,3.51037265 10.8866462,0.846988034 C10.2786462,1.37375726 9.88972308,2.14544957 9.90203077,3.01314188 C9.92295385,4.57375726 11.2054154,5.82175726 12.7660308,5.80083419 C13.5254154,5.78975726 14.2084923,5.47714188 14.7094154,4.98237265" id="Fill-8" fill="#BF4A40"></path>
                <path d="M3.16258462,5.00883419 C4.45981538,5.4002188 5.19335385,6.76883419 4.8032,8.06606496 C4.41181538,9.36329573 3.0432,10.0968342 1.74596923,9.70544957 C0.448738462,9.31529573 -0.286030769,7.94668034 0.106584615,6.64944957 C0.496738462,5.3522188 1.86535385,4.61744957 3.16258462,5.00883419" id="Fill-10" fill="#EF6E60"></path>
                <g id="Group-14" transform="translate(0.000000, 5.264957)">
                    <mask id="mask-2" fill="white">
                        <use xlink:href="#path-1"></use>
                    </mask>
                    <g id="Clip-13"></g>
                    <path d="M0.729846154,0.363446154 C-0.622769231,1.70867692 0.0123076923,3.91790769 1.74523077,4.44098462 C2.96369231,4.80898462 4.23630769,4.17513846 4.71015385,3.02313846 C2.76061538,4.30313846 0.300307692,2.60836923 0.729846154,0.363446154" id="Fill-12" fill="#BF4A40" mask="url(#mask-2)"></path>
                </g>
                <path d="M11.5111385,10.5929573 C12.6225231,11.4163419 12.8576,12.9855726 12.0329846,14.0969573 C11.2096,15.2083419 9.64036923,15.442188 8.52898462,14.6188034 C7.4176,13.7954188 7.18375385,12.226188 8.00713846,11.1148034 C8.83052308,10.0034188 10.3997538,9.76957265 11.5111385,10.5929573" id="Fill-15" fill="#EF6E60"></path>
                <path d="M12.4859077,12.9817573 C10.5191385,15.0494496 7.81636923,13.862988 7.81636923,11.586065 C7.81636923,11.526988 7.83113846,11.4654496 7.83483077,11.4051419 C7.23913846,12.486988 7.50990769,13.8642188 8.52898462,14.6186803 C10.0046769,15.7128342 12.1954462,14.902988 12.4859077,12.9817573" id="Fill-17" fill="#BF4A40"></path>
            </g>
        </g>
    </g>
</svg>