<?xml version="1.0" encoding="UTF-8"?>
<svg width="16px" height="16px" viewBox="0 0 16 16" version="1.1" xmlns="http://www.w3.org/2000/svg" xmlns:xlink="http://www.w3.org/1999/xlink">
    <!-- Generator: Sketch 61.2 (89653) - https://sketch.com -->
    <title>icons/ui/plus-circle</title>
    <desc>Created with Sketch.</desc>
    <g id="icons/ui/plus-circle" stroke="none" stroke-width="1" fill="none" fill-rule="evenodd">
        <g id="Group-11" transform="translate(0.500000, 0.000000)">
            <path d="M2.49421341,2.58558269 C-0.29496278,5.00846948 -1.05946589,9.17039082 1.83388435,12.8030408 C4.71883346,16.4239291 9.44531095,16.630597 12.6377415,13.8548626 C14.2826834,12.4249898 15.0925526,11.1866628 15.2202498,9.35521575 C15.3529878,7.44647831 14.7430655,4.94294064 13.4627328,3.47106212 C7.94990925,-2.87347361 3.20326905,1.96893952 2.49421341,2.58558269" id="Fill-1" fill="#FFDA84"/>
            <path d="M9.41699048,3.18076952 C9.26765714,3.11067429 9.12289524,3.05124571 8.97813333,3.00096" id="Stroke-3" stroke="#EBA400" stroke-width="1.14285714" stroke-linecap="round" stroke-linejoin="round"/>
            <path d="M12.1536,5.69124571 C12.0103619,5.43067429 11.8488381,5.19143619 11.6675048,4.98115048 C11.4663619,4.75105524 11.2667429,4.54076952 11.0701714,4.35181714" id="Stroke-5" stroke="#EBA400" stroke-width="1.14285714" stroke-linecap="round" stroke-linejoin="round"/>
            <line x1="4.36647619" y1="8.11090286" x2="10.9417143" y2="8.01642667" id="Stroke-7" stroke="#000000" stroke-width="1.14285714" stroke-linecap="round" stroke-linejoin="round"/>
            <line x1="7.41546667" y1="5.34747429" x2="7.70194286" y2="10.589379" id="Stroke-9" stroke="#000000" stroke-width="1.14285714" stroke-linecap="round" stroke-linejoin="round"/>
        </g>
    </g>
</svg>