<?xml version="1.0" encoding="UTF-8"?>
<svg width="16px" height="16px" viewBox="0 0 16 16" version="1.1" xmlns="http://www.w3.org/2000/svg" xmlns:xlink="http://www.w3.org/1999/xlink">
    <!-- Generator: Sketch 61.2 (89653) - https://sketch.com -->
    <title>icons/ui/folder</title>
    <desc>Created with Sketch.</desc>
    <defs>
        <polygon id="path-1" points="0 0.321428553 15.336 0.321428553 15.336 12.5710857 0 12.5710857"/>
        <polygon id="path-3" points="0.1112 0.469417483 15.0392 0.469417483 15.0392 2.28571429 0.1112 2.28571429"/>
    </defs>
    <g id="icons/ui/folder" stroke="none" stroke-width="1" fill="none" fill-rule="evenodd">
        <g id="Group-9" transform="translate(0.500000, 1.500000)">
            <g id="Group-3" transform="translate(0.000000, 0.059924)">
                <mask id="mask-2" fill="white">
                    <use xlink:href="#path-1"/>
                </mask>
                <g id="Clip-2"/>
                <path d="M1.52422857,0.3768 C0.797371429,0.446514286 -0.000342857143,0.667085714 -0.000342857143,1.68308571 L-0.000342857143,10.4659429 C-0.000342857143,12.0339429 0.2728,12.5710857 2.03165714,12.5710857 C3.14137143,12.5710857 4.23508571,12.0910857 8.05451429,12.0910857 C11.2979429,12.0910857 12.0613714,12.4499429 13.3482286,12.4499429 C14.3916571,12.4499429 15.0979429,11.8796571 15.2042286,10.8728 C15.2122286,10.8008 15.4316571,6.25451429 15.2876571,3.66137143 C15.2190857,2.4328 14.8602286,2.04537143 13.7196571,2.04537143 C12.1619429,2.04537143 10.4922286,2.35737143 8.59051429,2.3368 C7.77222857,2.32765714 7.52765714,2.08765714 7.45908571,1.68651429 C7.33108571,0.933371429 7.18708571,0.3528 6.31508571,0.3528 C5.0568,0.3528 2.66822857,0.268228571 1.52422857,0.3768" id="Fill-1" fill="#FFCC4D" mask="url(#mask-2)"/>
            </g>
            <g id="Group-6" transform="translate(0.000000, 10.345638)">
                <mask id="mask-4" fill="white">
                    <use xlink:href="#path-3"/>
                </mask>
                <g id="Clip-5"/>
                <path d="M8.44491429,0.471085714 C5.07691429,0.434514286 1.66091429,1.00822857 0.1112,1.3088 C0.300914286,2.01051429 0.796914286,2.28594286 2.03234286,2.28594286 C3.14091429,2.28594286 4.23348571,1.8048 8.05405714,1.8048 C11.2974857,1.8048 12.0609143,2.16365714 13.3477714,2.16365714 C14.1557714,2.16365714 14.7569143,1.81851429 15.0392,1.19794286 C13.5409143,0.887085714 11.1500571,0.499657143 8.44491429,0.471085714" id="Fill-4" fill="#E8A23D" mask="url(#mask-4)"/>
            </g>
            <path d="M1.5264,2.11752381 C3.64868571,1.49580952 3.79497143,2.90838095 5.8144,1.70152381" id="Stroke-7" stroke="#FFFFFF" stroke-width="0.9" stroke-linecap="round" stroke-linejoin="round"/>
        </g>
    </g>
</svg>