<?xml version="1.0" encoding="UTF-8"?>
<svg width="16px" height="16px" viewBox="0 0 16 16" version="1.1" xmlns="http://www.w3.org/2000/svg" xmlns:xlink="http://www.w3.org/1999/xlink">
    <!-- Generator: Sketch 61.2 (89653) - https://sketch.com -->
    <title>icons/notebook/handspun</title>
    <desc>Created with Sketch.</desc>
    <defs>
        <path d="M0.732659933,0.122397306 C0.732659933,0.122397306 0.44074523,1.95146128 0.557970819,4.08163412 L0.557970819,4.08163412 C0.674621773,6.21238159 -0.0327542088,8.06443098 0.651061728,10.8284265 L0.651061728,10.8284265 L11.4409877,10.9502492 C11.6691178,8.11844669 11.1795286,7.09444669 11.3622626,4.41434792 L11.3622626,4.41434792 C11.4978765,2.42208754 11.1783793,0.0430976431 11.1783793,0.0430976431 L11.1783793,0.0430976431" id="path-1"/>
        <path d="M0.732659933,0.122397306 C0.732659933,0.122397306 0.44074523,1.95146128 0.557970819,4.08163412 L0.557970819,4.08163412 C0.674621773,6.21238159 -0.0327542088,8.06443098 0.651061728,10.8284265 L0.651061728,10.8284265 L11.4409877,10.9502492 C11.6691178,8.11844669 11.1795286,7.09444669 11.3622626,4.41434792 L11.3622626,4.41434792 C11.4978765,2.42208754 11.1783793,0.0430976431 11.1783793,0.0430976431 L11.1783793,0.0430976431" id="path-3"/>
        <path d="M0.732659933,0.122397306 C0.732659933,0.122397306 0.44074523,1.95146128 0.557970819,4.08163412 L0.557970819,4.08163412 C0.674621773,6.21238159 -0.0327542088,8.06443098 0.651061728,10.8284265 L0.651061728,10.8284265 L11.4409877,10.9502492 C11.6691178,8.11844669 11.1795286,7.09444669 11.3622626,4.41434792 L11.3622626,4.41434792 C11.4978765,2.42208754 11.1783793,0.0430976431 11.1783793,0.0430976431 L11.1783793,0.0430976431" id="path-5"/>
        <path d="M0.732659933,0.122397306 C0.732659933,0.122397306 0.44074523,1.95146128 0.557970819,4.08163412 L0.557970819,4.08163412 C0.674621773,6.21238159 -0.0327542088,8.06443098 0.651061728,10.8284265 L0.651061728,10.8284265 L11.4409877,10.9502492 C11.6691178,8.11844669 11.1795286,7.09444669 11.3622626,4.41434792 L11.3622626,4.41434792 C11.4978765,2.42208754 11.1783793,0.0430976431 11.1783793,0.0430976431 L11.1783793,0.0430976431" id="path-7"/>
        <path d="M0.732659933,0.122397306 C0.732659933,0.122397306 0.44074523,1.95146128 0.557970819,4.08163412 L0.557970819,4.08163412 C0.674621773,6.21238159 -0.0327542088,8.06443098 0.651061728,10.8284265 L0.651061728,10.8284265 L11.4409877,10.9502492 C11.6691178,8.11844669 11.1795286,7.09444669 11.3622626,4.41434792 L11.3622626,4.41434792 C11.4978765,2.42208754 11.1783793,0.0430976431 11.1783793,0.0430976431 L11.1783793,0.0430976431" id="path-9"/>
        <path d="M0.732659933,0.122397306 C0.732659933,0.122397306 0.44074523,1.95146128 0.557970819,4.08163412 L0.557970819,4.08163412 C0.674621773,6.21238159 -0.0327542088,8.06443098 0.651061728,10.8284265 L0.651061728,10.8284265 L11.4409877,10.9502492 C11.6691178,8.11844669 11.1795286,7.09444669 11.3622626,4.41434792 L11.3622626,4.41434792 C11.4978765,2.42208754 11.1783793,0.0430976431 11.1783793,0.0430976431 L11.1783793,0.0430976431" id="path-11"/>
        <path d="M0.732659933,0.122397306 C0.732659933,0.122397306 0.44074523,1.95146128 0.557970819,4.08163412 L0.557970819,4.08163412 C0.674621773,6.21238159 -0.0327542088,8.06443098 0.651061728,10.8284265 L0.651061728,10.8284265 L11.4409877,10.9502492 C11.6691178,8.11844669 11.1795286,7.09444669 11.3622626,4.41434792 L11.3622626,4.41434792 C11.4978765,2.42208754 11.1783793,0.0430976431 11.1783793,0.0430976431 L11.1783793,0.0430976431" id="path-13"/>
        <polygon id="path-15" points="0.366847138 0.0221521886 14.0230536 0.0221521886 14.0230536 1.81369248 0.366847138 1.81369248"/>
        <polygon id="path-17" points="0.366847138 0.269503928 14.0230536 0.269503928 14.0230536 2.0607569 0.366847138 2.0607569"/>
    </defs>
    <g id="icons/notebook/handspun" stroke="none" stroke-width="1" fill="none" fill-rule="evenodd">
        <g id="Group-37" transform="translate(0.000000, 1.000000)">
            <g id="Group-7" transform="translate(1.149270, 2.029324)">
                <path d="M10.4725549,4.19857239 C10.5995493,3.72392368 10.7311407,3.23261055 11.0494887,2.81312682 C11.3471497,2.3936431 11.8016862,2.03679461 12.3493136,1.93508418 C12.8871722,1.82475421 13.4922631,1.98220426 13.8835897,2.40685971 C14.2915807,2.81887318 14.395015,3.4797037 14.2140049,3.98710662 L14.2082586,4.00262177 C14.1548175,4.15202694 13.9904718,4.23017733 13.8410667,4.17673625 C13.6933854,4.12386981 13.6158097,3.96239731 13.6658029,3.81414141 C13.7910734,3.44177778 13.7140723,3.05964534 13.4664045,2.80220875 C13.226207,2.53442873 12.8222384,2.42180022 12.4544718,2.49995062 C12.0832575,2.56948148 11.7528422,2.81772391 11.5160925,3.14813917 C11.2638276,3.47223345 11.1477513,3.90091134 11.0351228,4.31579798 L11.0265033,4.34797755 C10.9851295,4.50025589 10.8271048,4.59104826 10.6748265,4.54909989 C10.5213989,4.50772615 10.4311811,4.35142536 10.4725549,4.19857239" id="Fill-1" fill="#BF4A40"/>
                <path d="M11.3620328,4.41406061 C11.4976467,2.42180022 11.1787241,0.0433849607 11.1787241,0.0433849607 L0.733004714,0.122109989 C0.733004714,0.122109989 0.440515376,1.9517486 0.557740965,4.08192144 C0.674391919,6.21266891 -0.0324094276,8.06471829 0.650831874,10.8281392 L11.4407578,10.9499618 C11.6694626,8.11873401 11.1798734,7.09473401 11.3620328,4.41406061" id="Fill-3" fill="#EE6E62"/>
                <path d="M11.2778487,0.964008081 C11.2272808,0.406037262 11.1784368,0.0422931538 11.1784368,0.0422931538 L0.732142761,0.122167452 C0.732142761,0.122167452 0.64537284,0.978373962 0.594230303,1.50129203 L11.2778487,0.964008081 Z" id="Fill-5" fill="#BF4A40"/>
            </g>
            <g id="Group-29" transform="translate(1.149270, 2.029324)">
                <g id="Group-10">
                    <mask id="mask-2" fill="white">
                        <use xlink:href="#path-1"/>
                    </mask>
                    <g id="Clip-9"/>
                    <line x1="0.53596229" y1="2.33100786" x2="11.8597244" y2="3.68944557" id="Stroke-8" stroke="#BF4A40" stroke-width="0.632098765" stroke-linecap="round" stroke-linejoin="round" mask="url(#mask-2)"/>
                </g>
                <g id="Group-13">
                    <mask id="mask-4" fill="white">
                        <use xlink:href="#path-3"/>
                    </mask>
                    <g id="Clip-12"/>
                    <line x1="0.454593939" y1="4.29120359" x2="11.9409778" y2="5.11465589" id="Stroke-11" stroke="#BF4A40" stroke-width="0.632098765" stroke-linecap="round" stroke-linejoin="round" mask="url(#mask-4)"/>
                </g>
                <g id="Group-16">
                    <mask id="mask-6" fill="white">
                        <use xlink:href="#path-5"/>
                    </mask>
                    <g id="Clip-15"/>
                    <line x1="-0.861895398" y1="7.06502536" x2="11.8047892" y2="6.06975713" id="Stroke-14" stroke="#BF4A40" stroke-width="0.632098765" stroke-linecap="round" stroke-linejoin="round" mask="url(#mask-6)"/>
                </g>
                <g id="Group-19">
                    <mask id="mask-8" fill="white">
                        <use xlink:href="#path-7"/>
                    </mask>
                    <g id="Clip-18"/>
                    <line x1="11.4725926" y1="9.66490505" x2="-0.584978676" y2="8.28233266" id="Stroke-17" stroke="#BF4A40" stroke-width="0.632098765" stroke-linecap="round" stroke-linejoin="round" mask="url(#mask-8)"/>
                </g>
                <g id="Group-22">
                    <mask id="mask-10" fill="white">
                        <use xlink:href="#path-9"/>
                    </mask>
                    <g id="Clip-21"/>
                    <line x1="4.5769697" y1="2.75468642" x2="11.3070976" y2="0.173424916" id="Stroke-20" stroke="#BF4A40" stroke-width="0.632098765" stroke-linecap="round" stroke-linejoin="round" mask="url(#mask-10)"/>
                </g>
                <g id="Group-25">
                    <mask id="mask-12" fill="white">
                        <use xlink:href="#path-11"/>
                    </mask>
                    <g id="Clip-24"/>
                    <line x1="11.7677253" y1="1.611622" x2="7.7849284" y2="3.12348732" id="Stroke-23" stroke="#BF4A40" stroke-width="0.632098765" stroke-linecap="round" stroke-linejoin="round" mask="url(#mask-12)"/>
                </g>
                <g id="Group-28">
                    <mask id="mask-14" fill="white">
                        <use xlink:href="#path-13"/>
                    </mask>
                    <g id="Clip-27"/>
                    <line x1="11.6942294" y1="7.9500211" x2="6.60525971" y2="7.69603232" id="Stroke-26" stroke="#BF4A40" stroke-width="0.632098765" stroke-linecap="round" stroke-linejoin="round" mask="url(#mask-14)"/>
                </g>
            </g>
            <g id="Group-36" transform="translate(0.000000, 0.305419)">
                <g id="Group-32" transform="translate(0.000000, 11.977553)">
                    <mask id="mask-16" fill="white">
                        <use xlink:href="#path-15"/>
                    </mask>
                    <g id="Clip-31"/>
                    <path d="M14.0230536,0.91800853 L14.0230536,0.91800853 C14.0230536,1.41219484 13.6225329,1.81386487 13.1271973,1.81386487 L1.26270348,1.81386487 C0.768517172,1.81386487 0.366847138,1.41219484 0.366847138,0.91800853 C0.366847138,0.423247587 0.768517172,0.0221521886 1.26270348,0.0221521886 L13.1271973,0.0221521886 C13.6225329,0.0221521886 14.0230536,0.423247587 14.0230536,0.91800853" id="Fill-30" fill="#F3F4F0" mask="url(#mask-16)"/>
                </g>
                <g id="Group-35">
                    <mask id="mask-18" fill="white">
                        <use xlink:href="#path-17"/>
                    </mask>
                    <g id="Clip-34"/>
                    <path d="M14.0230536,1.16490056 L14.0230536,1.16490056 C14.0230536,1.6596615 13.6225329,2.0607569 13.1271973,2.0607569 L1.26270348,2.0607569 C0.768517172,2.0607569 0.366847138,1.6596615 0.366847138,1.16490056 C0.366847138,0.670714254 0.768517172,0.26904422 1.26270348,0.26904422 L13.1271973,0.26904422 C13.6225329,0.26904422 14.0230536,0.670714254 14.0230536,1.16490056" id="Fill-33" fill="#F3F4F0" mask="url(#mask-18)"/>
                </g>
            </g>
        </g>
    </g>
</svg>