<?xml version="1.0" encoding="UTF-8"?>
<svg width="16px" height="16px" viewBox="0 0 16 16" version="1.1" xmlns="http://www.w3.org/2000/svg" xmlns:xlink="http://www.w3.org/1999/xlink">
    <!-- Generator: Sketch 61.2 (89653) - https://sketch.com -->
    <title>icons/notebook/projects</title>
    <desc>Created with Sketch.</desc>
    <defs>
        <polygon id="path-1" points="0 0.209281165 12.0275518 0.209281165 12.0275518 14.0466392 0 14.0466392"/>
        <polygon id="path-3" points="0.0154578177 0.0690626429 11.6863649 0.0690626429 11.6863649 13.6182285 0.0154578177 13.6182285"/>
    </defs>
    <g id="icons/notebook/projects" stroke="none" stroke-width="1" fill="none" fill-rule="evenodd">
        <g id="Group-33" transform="translate(1.500000, 0.500000)">
            <g id="Group-3" transform="translate(0.000000, 1.193233)">
                <mask id="mask-2" fill="white">
                    <use xlink:href="#path-1"/>
                </mask>
                <g id="Clip-2"/>
                <path d="M11.6937101,1.22077 C11.8979717,1.24125469 12.0466319,1.42327572 12.025562,1.62695199 L10.8152099,13.7129145 C10.7947252,13.9160055 10.6127042,14.065251 10.4090279,14.0447663 L0.334075903,13.0357494 C0.129814358,13.0146795 -0.0188459076,12.8332437 0.00163877458,12.6289822 L1.21316141,0.543604938 C1.23364609,0.339343393 1.41508185,0.190683128 1.61875812,0.21116781 L11.6937101,1.22077 Z" id="Fill-1" fill="#C4C9B5" mask="url(#mask-2)"/>
            </g>
            <path d="M11.0901143,1.36179241 L12.7119159,13.399177 C12.7394239,13.6022679 12.5966164,13.7889712 12.3941107,13.8164792 L2.35954275,15.1684682 C2.15586648,15.1959762 1.96916324,15.053754 1.94224051,14.850663 L0.320438957,2.81269319 C0.292930956,2.61018747 0.435153178,2.42289895 0.63824417,2.39597622 L10.6728121,1.0439872 C10.8759031,1.0164792 11.0626063,1.15870142 11.0901143,1.36179241" id="Fill-4" fill="#D3D6CB"/>
            <polygon id="Fill-6" fill="#C4C9B5" points="10.4134175 13.2182094 1.61202743 12.4017485 1.77414906 13.6068331"/>
            <line x1="5.1430599" y1="14.815722" x2="7.21142753" y2="14.4938198" id="Stroke-8" stroke="#586AE8" stroke-width="0.702331962" stroke-linecap="round" stroke-linejoin="round"/>
            <g id="Group-12" transform="translate(1.079104, 0.022679)">
                <mask id="mask-4" fill="white">
                    <use xlink:href="#path-3"/>
                </mask>
                <g id="Clip-11"/>
                <path d="M11.6856626,1.15504344 L10.8580814,13.2726109 C10.8440348,13.4774577 10.6672812,13.6313855 10.4624344,13.6173388 L0.360559671,12.9272977 C0.156298125,12.9138363 0.00178509374,12.7364975 0.0164170096,12.5322359 L0.843998171,0.414083219 C0.857459534,0.21040695 1.03479835,0.0558939186 1.23847462,0.0699405578 L11.3403493,0.759396433 C11.5451962,0.773443073 11.6991239,0.950196616 11.6856626,1.15504344" id="Fill-10" fill="#F3F4F0" mask="url(#mask-4)"/>
            </g>
            <path d="M5.0704856,2.86495839 C5.27767353,2.87900503 5.43394239,3.05868496 5.41989575,3.26587289 L5.32449566,4.66234294 C5.31044902,4.86953086 5.13135437,5.02579973 4.92416644,5.01175309 L3.52652583,4.91635299 C3.31992318,4.90230636 3.16306904,4.72321171 3.17770096,4.5154385 L3.27310105,3.11896845 C3.28714769,2.91178052 3.46682762,2.75551166 3.67343027,2.7695583 L5.0704856,2.86495839 Z" id="Fill-13" fill="#7391FE"/>
            <path d="M7.93283951,3.06044079 C8.14002743,3.07448743 8.2962963,3.25416735 8.28283493,3.46135528 L8.18743484,4.85782533 C8.17280293,5.06501326 7.99370828,5.22128212 7.78652035,5.20723548 L6.38946502,5.11183539 C6.18227709,5.09778875 6.02600823,4.9186941 6.04064015,4.7109209 L6.13545496,3.31445085 C6.1495016,3.10726292 6.32918153,2.95099406 6.53578418,2.9650407 L7.93283951,3.06044079 Z" id="Fill-15" fill="#586AE8"/>
            <path d="M10.7957787,3.25592318 C11.0029666,3.26996982 11.1592355,3.44964975 11.1451888,3.65683768 L11.0497888,5.05330773 C11.0351568,5.26049566 10.8566475,5.41676452 10.6488743,5.40271788 L9.25181893,5.30731779 C9.04521628,5.29327115 8.88836214,5.1141765 8.90299406,4.90640329 L8.99839415,3.50993324 C9.01244079,3.30274531 9.19153544,3.14647645 9.39872337,3.16052309 L10.7957787,3.25592318 Z" id="Fill-17" fill="#FFFFFF"/>
            <path d="M4.8750032,5.72737083 C5.08219113,5.74141747 5.23845999,5.92109739 5.22441335,6.12828532 L5.12901326,7.52475537 C5.11496662,7.73252858 4.93587197,7.88821216 4.72809877,7.8747508 L3.33104344,7.77935071 C3.12444079,7.76471879 2.96758665,7.58562414 2.98221856,7.37843621 L3.07761866,5.98196616 C3.09166529,5.77419296 3.27134522,5.6179241 3.47794787,5.63197074 L4.8750032,5.72737083 Z" id="Fill-19" fill="#D3D6CB"/>
            <path d="M7.73735711,5.9227947 C7.94454504,5.93684134 8.1008139,6.11652126 8.08735254,6.32370919 L7.99195245,7.72017924 C7.97732053,7.92795245 7.79822588,8.08363603 7.59103795,8.07017467 L6.19398262,7.97477458 C5.9867947,7.96014266 5.83052583,7.78104801 5.84515775,7.57386008 L5.93997257,6.17739003 C5.9540192,5.96961683 6.13369913,5.81334797 6.34030178,5.8273946 L7.73735711,5.9227947 Z" id="Fill-21" fill="#C4C9B5"/>
            <path d="M10.6002963,6.11827709 C10.8074842,6.13232373 10.9637531,6.31200366 10.9497064,6.51919159 L10.8543064,7.91566164 C10.8396744,8.12343484 10.6611651,8.27911843 10.4533919,8.26565706 L9.05633653,8.17025697 C8.84973388,8.15562506 8.69287974,7.97653041 8.70751166,7.76934248 L8.80291175,6.37287243 C8.81695839,6.16509922 8.99605304,6.00883036 9.20324097,6.022877 L10.6002963,6.11827709 Z" id="Fill-23" fill="#EE6E62"/>
            <path d="M4.6795208,8.59031001 C4.88670873,8.60377138 5.04297759,8.7834513 5.02893096,8.99122451 L4.93353086,10.3876946 C4.91948422,10.5948825 4.74038957,10.7511513 4.53261637,10.7371047 L3.13556104,10.6417046 C2.92895839,10.6270727 2.77210425,10.4479781 2.78673617,10.2407901 L2.88213626,8.84432007 C2.8961829,8.63713214 3.07586283,8.48086328 3.28246548,8.49490992 L4.6795208,8.59031001 Z" id="Fill-25" fill="#94D3C8"/>
            <path d="M7.54187471,8.78573388 C7.74906264,8.79919524 7.9053315,8.97887517 7.89187014,9.18664838 L7.79647005,10.5831184 C7.78183813,10.7903064 7.60274348,10.9465752 7.39555556,10.9325286 L5.99850023,10.8371285 C5.7913123,10.8224966 5.63504344,10.6439872 5.64909008,10.436214 L5.74449017,9.03974394 C5.75853681,8.83255601 5.93821674,8.67628715 6.14481939,8.69033379 L7.54187471,8.78573388 Z" id="Fill-27" fill="#477A85"/>
            <path d="M10.4048139,8.98121628 C10.6120018,8.99526292 10.7682707,9.17435757 10.7542241,9.38213077 L10.658824,10.7786008 C10.644192,10.9857888 10.4656827,11.1420576 10.2579095,11.128011 L8.86085414,11.0326109 C8.65425149,11.017979 8.49739735,10.8394696 8.51202926,10.6316964 L8.60742936,9.23522634 C8.62089072,9.02803841 8.80057064,8.87176955 9.00775857,8.88581619 L10.4048139,8.98121628 Z" id="Fill-29" fill="#FFCC4D"/>
            <line x1="1.13643164" y1="11.9556507" x2="1.51334979" y2="7.92016827" id="Stroke-31" stroke="#586AE8" stroke-width="0.702331962" stroke-linecap="round" stroke-linejoin="round"/>
        </g>
    </g>
</svg>